<svg version="1.1" xmlns="http://www.w3.org/2000/svg" xmlns:xlink="http://www.w3.org/1999/xlink" width="58.86146" height="58.86144" viewBox="0,0,58.86146,58.86144"><g transform="translate(-210.56926,-150.56927)"><g data-paper-data="{&quot;isPaintingLayer&quot;:true}" fill-rule="nonzero" stroke="none" stroke-width="0" stroke-linecap="butt" stroke-linejoin="miter" stroke-miterlimit="10" stroke-dasharray="" stroke-dashoffset="0" style="mix-blend-mode: normal"><path d="M210.5693,200.2745c0,-11.75998 0,-31.49855 0,-38.58695c0,-4.99955 5.08749,-11.11828 9.48322,-11.11828c6.76585,0 26.87056,0 39.24096,0c5.96901,0 10.13724,4.8852 10.13724,9.15622c0,6.67152 0,26.73847 0,39.24096c0,6.14616 -5.49606,10.46426 -10.13724,10.46426c-7.07765,0 -27.88347,0 -39.895,0c-5.25681,0 -8.82922,-3.72824 -8.82922,-9.15622z" fill="#2f2f2f"/><path d="M214.29245,197.70966c0,-10.2723 0,-27.51379 0,-33.70548c0,-4.36708 4.44387,-9.71175 8.28357,-9.71175c5.90991,0 23.47129,0 34.27676,0c5.2139,0 8.85482,4.26718 8.85482,7.99792c0,5.82753 0,23.3559 0,34.27676c0,5.36861 -4.80077,9.14047 -8.85482,9.14047c-6.18229,0 -24.35605,0 -34.84801,0c-4.5918,0 -7.71227,-3.2566 -7.71227,-7.99792z" fill="#343434"/><path d="M218.57759,194.75766c0,-8.56002 0,-22.92755 0,-28.08716c0,-3.63914 3.70313,-8.09291 6.90279,-8.09291c4.92479,0 19.55889,0 28.56321,0c4.3448,0 7.37882,3.55589 7.37882,6.66476c0,4.85615 0,19.46274 0,28.56321c0,4.47372 -4.00054,7.61686 -7.37882,7.61686c-5.15177,0 -20.29617,0 -29.03924,0c-3.8264,0 -6.42672,-2.71376 -6.42672,-6.66476z" fill="#3d3d3d"/><path d="M221.43097,168.31321c0,-0.773 0,-1.54277 0,-2.07765c0,-1.30431 1.37093,-3.63589 2.33736,-3.63589c0.77513,0 2.29244,0 3.63589,0c1.39184,0 2.59707,1.37093 2.59707,2.33736c0,0.51198 0,2.34787 0,3.8956c0,1.26491 -1.55368,2.33736 -2.59707,2.33736c-0.85635,0 -2.53525,0 -3.8956,0c-1.15331,0 -2.07765,-1.43387 -2.07765,-2.85677z" fill="#2f2f2f"/><path d="M249.80458,168.11907c0,-0.773 0,-1.54277 0,-2.07766c0,-1.30432 1.37094,-3.63589 2.33736,-3.63589c0.77513,0 2.29244,0 3.63589,0c1.39184,0 2.59707,1.37094 2.59707,2.33736c0,0.51199 0,2.34787 0,3.8956c0,1.26492 -1.55367,2.33736 -2.59707,2.33736c-0.85635,0 -2.53525,0 -3.8956,0c-1.15331,0 -2.07766,-1.43387 -2.07766,-2.85677z" fill="#2f2f2f"/><path d="M220.45771,196.94652c0,-0.773 0,-1.54277 0,-2.07766c0,-1.30432 1.37094,-3.63589 2.33736,-3.63589c0.77513,0 2.29244,0 3.6359,0c1.39183,0 2.59707,1.37094 2.59707,2.33736c0,0.51199 0,2.34787 0,3.8956c0,1.26492 -1.55368,2.33736 -2.59707,2.33736c-0.85636,0 -2.53526,0 -3.8956,0c-1.15331,0 -2.07765,-1.43387 -2.07765,-2.85677z" fill="#2f2f2f"/><path d="M248.83132,196.75238c0,-0.773 0,-1.54277 0,-2.07765c0,-1.30432 1.37094,-3.63589 2.33736,-3.63589c0.77513,0 2.29244,0 3.6359,0c1.39184,0 2.59707,1.37094 2.59707,2.33736c0,0.51199 0,2.34787 0,3.8956c0,1.26492 -1.55367,2.33736 -2.59707,2.33736c-0.85636,0 -2.53526,0 -3.8956,0c-1.15331,0 -2.07766,-1.43387 -2.07766,-2.85677z" fill="#2f2f2f"/></g></g></svg>