<svg version="1.1" xmlns="http://www.w3.org/2000/svg" xmlns:xlink="http://www.w3.org/1999/xlink" width="58.86146" height="58.86144" viewBox="0,0,58.86146,58.86144"><g transform="translate(-210.56926,-150.56927)"><g data-paper-data="{&quot;isPaintingLayer&quot;:true}" fill-rule="nonzero" stroke="none" stroke-width="0" stroke-linecap="butt" stroke-linejoin="miter" stroke-miterlimit="10" stroke-dasharray="" stroke-dashoffset="0" style="mix-blend-mode: normal"><path d="M210.5693,200.2745c0,-11.75998 0,-31.49855 0,-38.58695c0,-4.99955 5.08749,-11.11828 9.48322,-11.11828c6.76585,0 26.87056,0 39.24096,0c5.96901,0 10.13724,4.8852 10.13724,9.15622c0,6.67152 0,26.73847 0,39.24096c0,6.14616 -5.49606,10.46426 -10.13724,10.46426c-7.07765,0 -27.88347,0 -39.895,0c-5.25681,0 -8.82922,-3.72824 -8.82922,-9.15622z" fill="#0053b1"/><path d="M214.29245,197.70966c0,-10.2723 0,-27.51379 0,-33.70548c0,-4.36708 4.44387,-9.71175 8.28357,-9.71175c5.90991,0 23.47129,0 34.27676,0c5.2139,0 8.85482,4.26718 8.85482,7.99792c0,5.82753 0,23.3559 0,34.27676c0,5.36861 -4.80077,9.14047 -8.85482,9.14047c-6.18229,0 -24.35605,0 -34.84801,0c-4.5918,0 -7.71227,-3.2566 -7.71227,-7.99792z" fill="#0066da"/><path d="M217.45983,204.81757c0,0 -2.41232,-0.92672 -2.82972,-5.41324c-0.97452,-10.475 -0.43151,-30.99773 0.00658,-37.36492c0.31851,-4.62891 6.32679,-8.14167 6.32679,-8.14167v0c0,0 1.00751,26.82818 3.01235,36.12716c1.51639,7.03342 7.96579,14.79266 7.96579,14.79266z" fill="#0060ce"/><path d="M217.80572,183.88551v-8.43965h39.18421v8.43965z" fill="#ffffff"/><path d="M246.62252,198.21192v-37.46264l18.73132,18.73132z" fill="#ffffff"/></g></g></svg>