<svg version="1.1" xmlns="http://www.w3.org/2000/svg" xmlns:xlink="http://www.w3.org/1999/xlink" width="34.87687" height="34.87685" viewBox="0,0,34.87687,34.87685"><g transform="translate(-222.56158,-162.5616)"><g data-paper-data="{&quot;isPaintingLayer&quot;:true}" fill-rule="nonzero" stroke="none" stroke-width="0" stroke-linecap="butt" stroke-linejoin="miter" stroke-miterlimit="10" stroke-dasharray="" stroke-dashoffset="0" style="mix-blend-mode: normal"><path d="M222.56159,192.01317c0,-6.96809 0,-18.66368 0,-22.86372c0,-2.96236 3.01446,-6.58785 5.61904,-6.58785c4.00893,0 15.92147,0 23.25124,0c3.53679,0 6.00658,2.89461 6.00658,5.42528c0,3.95304 0,15.84319 0,23.25124c0,3.64175 -3.25655,6.20033 -6.00658,6.20033c-4.19367,0 -16.52163,0 -23.63877,0c-3.11479,0 -5.23152,-2.20907 -5.23152,-5.42528z" fill="#944f00"/><path d="M224.76766,190.49342c0,-6.08659 0,-16.30259 0,-19.97131c0,-2.5876 2.63309,-5.75445 4.90821,-5.75445c3.50176,0 13.90732,0 20.30982,0c3.08937,0 5.24672,2.52842 5.24672,4.73895c0,3.45295 0,13.83895 0,20.30982c0,3.18104 -2.84457,5.41596 -5.24672,5.41596c-3.66315,0 -14.43156,0 -20.64831,0c-2.72077,0 -4.56969,-1.92961 -4.56969,-4.73895z" fill="#d97400"/><path d="M228.06258,195.02019c0,0 -2.84754,-0.86426 -3.09486,-3.52264c-0.57742,-6.20669 -0.2557,-18.36691 0.0039,-22.13963c0.18871,-2.74276 4.33906,-4.67656 4.33906,-4.67656c0,0 0.00668,15.74877 1.19459,21.25864c0.89851,4.16747 4.87749,9.39531 4.87749,9.39531z" fill="#bc6400"/><path d="M227.98483,180.00002c0,-5.9238 4.80219,-10.726 10.726,-10.726c3.7904,0 6.49129,1.65096 8.39907,4.61899c1.07378,1.67053 2.32693,3.97361 2.32693,6.10701c0,5.9238 -4.80219,10.726 -10.726,10.726c-5.9238,0 -10.726,-4.80219 -10.726,-10.726z" fill="#ffffff"/><path d="M232.00708,180.00002c0,-3.70238 3.00137,-6.70375 6.70375,-6.70375c3.70238,0 6.70375,3.00137 6.70375,6.70375c0,3.70238 -3.00137,6.70375 -6.70375,6.70375c-3.70238,0 -6.70375,-3.00137 -6.70375,-6.70375z" fill="#d97400"/><path d="M239.43277,178.55614v-5.15673l11.32181,2.04849l1.26061,3.10824z" fill="#d97400"/><path d="M241.97049,178.61578c0.49013,-0.98966 0.51168,-1.89026 1.43172,-3.74798c0.03922,-0.07919 0.11873,-0.08374 0.02772,-0.39145c-0.08514,-0.28782 -0.67933,-0.40895 -0.65547,-0.53049c0.13132,-0.66875 1.36136,-2.03547 1.6424,-2.35418c0.16836,-0.19093 0.51153,-0.20624 0.70636,-0.21722c0.14473,-0.00816 0.27712,-0.2503 0.37076,-0.40664c0.80121,-1.33764 1.51264,-2.52084 1.77318,-3.04692c0.27549,-0.55626 0.73953,-0.50253 0.92736,0.05389c0.39036,1.15639 1.84651,5.47008 2.48404,7.35867c0.18587,0.55062 -0.07449,1.02225 -0.47131,1.15621c-1.00234,0.33836 -5.42336,1.83074 -7.51794,2.5378c-0.67462,0.22773 -0.96298,0.08134 -0.71881,-0.41167z" fill="#ffffff"/></g></g></svg>