<svg version="1.1" xmlns="http://www.w3.org/2000/svg" xmlns:xlink="http://www.w3.org/1999/xlink" width="707.65349" height="581.81845" viewBox="0,0,707.65349,581.81845"><g transform="translate(130.63279,112.38377)"><g data-paper-data="{&quot;isPaintingLayer&quot;:true}" fill-rule="nonzero" stroke="none" stroke-linecap="butt" stroke-linejoin="miter" stroke-miterlimit="10" stroke-dasharray="" stroke-dashoffset="0" style="mix-blend-mode: normal"><path d="M-63.11639,469.43468l-67.5164,-494.39983l640.13709,-87.41862l67.5164,494.39983z" fill="#171717" stroke-width="0"/><path d="M-82.24446,49.75093c-1.20678,-8.83683 -3.23229,-23.66899 -3.95969,-28.99544c-0.51304,-3.75681 2.68196,-8.87668 5.98507,-9.32776c5.08407,-0.69429 20.19138,-2.75738 29.48689,-4.0268c4.4853,-0.61252 8.11875,2.63063 8.55703,5.84002c0.68461,5.01319 2.74383,20.09212 4.0268,29.48689c0.6307,4.61841 -3.0561,8.42716 -6.54363,8.90343c-5.31837,0.72629 -20.95251,2.86132 -29.97834,4.09391c-3.95014,0.53944 -7.01713,-1.89548 -7.57414,-5.97424z" fill="#262626" stroke-width="0"/><path d="M-32.48534,42.95572c-1.20678,-8.83683 -3.23229,-23.66899 -3.95969,-28.99544c-0.51304,-3.75681 2.68196,-8.87668 5.98507,-9.32776c5.08407,-0.69429 20.19138,-2.75738 29.48689,-4.0268c4.4853,-0.61252 8.11875,2.63063 8.55703,5.84002c0.68461,5.01319 2.74383,20.09212 4.0268,29.48689c0.6307,4.61841 -3.0561,8.42716 -6.54363,8.90343c-5.31837,0.72629 -20.95251,2.86132 -29.97834,4.09391c-3.95014,0.53944 -7.01713,-1.89548 -7.57414,-5.97424z" fill="#262626" stroke-width="0"/><path d="M17.972,36.6909c-1.20678,-8.83683 -3.23229,-23.66899 -3.95969,-28.99544c-0.51304,-3.75681 2.68196,-8.87668 5.98507,-9.32776c5.08407,-0.69429 20.19138,-2.75738 29.48689,-4.0268c4.4853,-0.61252 8.11875,2.63063 8.55703,5.84002c0.68461,5.01319 2.74383,20.09212 4.0268,29.48689c0.6307,4.61841 -3.0561,8.42716 -6.54363,8.90343c-5.31837,0.72629 -20.95251,2.86132 -29.97834,4.09391c-3.95014,0.53944 -7.01713,-1.89548 -7.57414,-5.97424z" fill="#262626" stroke-width="0"/><path d="M67.73112,29.89569c-1.20678,-8.83683 -3.23229,-23.66899 -3.95969,-28.99544c-0.51304,-3.75681 2.68196,-8.87668 5.98507,-9.32776c5.08407,-0.69429 20.19138,-2.75738 29.48689,-4.0268c4.4853,-0.61252 8.11875,2.63063 8.55703,5.84002c0.68461,5.01319 2.74383,20.09212 4.0268,29.48689c0.6307,4.61841 -3.0561,8.42716 -6.54363,8.90343c-5.31837,0.72629 -20.95251,2.86132 -29.97834,4.09391c-3.95014,0.53944 -7.01713,-1.89548 -7.57414,-5.97424z" fill="#262626" stroke-width="0"/><path d="M119.41708,23.4631c-1.20678,-8.83683 -3.23229,-23.66899 -3.95969,-28.99544c-0.51304,-3.75681 2.68196,-8.87668 5.98507,-9.32776c5.08407,-0.69429 20.19138,-2.75738 29.48689,-4.0268c4.4853,-0.61252 8.11875,2.63063 8.55703,5.84002c0.68461,5.01319 2.74383,20.09212 4.0268,29.48689c0.6307,4.61841 -3.0561,8.42716 -6.54363,8.90343c-5.31837,0.72629 -20.95251,2.86132 -29.97834,4.09391c-3.95014,0.53944 -7.01713,-1.89548 -7.57414,-5.97424z" fill="#262626" stroke-width="0"/><path d="M169.1762,16.66788c-1.20678,-8.83683 -3.23229,-23.66899 -3.95969,-28.99544c-0.51304,-3.75681 2.68196,-8.87668 5.98507,-9.32776c5.08407,-0.69429 20.19138,-2.75738 29.48689,-4.0268c4.4853,-0.61252 8.11875,2.63063 8.55703,5.84002c0.68461,5.01319 2.74383,20.09212 4.0268,29.48689c0.6307,4.61841 -3.0561,8.42716 -6.54363,8.90343c-5.31837,0.72629 -20.95251,2.86132 -29.97834,4.09391c-3.95014,0.53944 -7.01713,-1.89548 -7.57414,-5.97424z" fill="#262626" stroke-width="0"/><path d="M219.63354,10.40306c-1.20678,-8.83683 -3.23229,-23.66899 -3.95969,-28.99544c-0.51304,-3.75681 2.68196,-8.87668 5.98507,-9.32776c5.08407,-0.69429 20.19138,-2.75738 29.48689,-4.0268c4.4853,-0.61252 8.11875,2.63063 8.55703,5.84002c0.68461,5.01319 2.74383,20.09212 4.0268,29.48689c0.6307,4.61841 -3.0561,8.42716 -6.54363,8.90343c-5.31837,0.72629 -20.95251,2.86132 -29.97834,4.09391c-3.95014,0.53944 -7.01713,-1.89548 -7.57414,-5.97424z" fill="#262626" stroke-width="0"/><path d="M269.39266,3.60785c-1.20678,-8.83683 -3.23229,-23.66899 -3.95969,-28.99544c-0.51304,-3.75681 2.68196,-8.87668 5.98507,-9.32776c5.08407,-0.69429 20.19138,-2.75738 29.48689,-4.0268c4.4853,-0.61252 8.11875,2.63063 8.55703,5.84002c0.68461,5.01319 2.74383,20.09212 4.0268,29.48689c0.6307,4.61841 -3.0561,8.42716 -6.54363,8.90343c-5.31837,0.72629 -20.95251,2.86132 -29.97834,4.09391c-3.95014,0.53944 -7.01713,-1.89548 -7.57414,-5.97424z" fill="#262626" stroke-width="0"/><path d="M320.46431,-2.74086c-1.20678,-8.83683 -3.23229,-23.66899 -3.95969,-28.99544c-0.51304,-3.75681 2.68196,-8.87668 5.98507,-9.32776c5.08407,-0.69429 20.19138,-2.75738 29.48689,-4.0268c4.4853,-0.61252 8.11875,2.63063 8.55703,5.84002c0.68461,5.01319 2.74383,20.09212 4.0268,29.48689c0.6307,4.61841 -3.0561,8.42716 -6.54363,8.90343c-5.31837,0.72629 -20.95251,2.86132 -29.97834,4.09391c-3.95014,0.53944 -7.01713,-1.89548 -7.57414,-5.97424z" fill="#262626" stroke-width="0"/><path d="M370.92164,-9.00565c-1.20678,-8.83683 -3.23229,-23.66899 -3.95969,-28.99544c-0.51304,-3.75681 2.68196,-8.87668 5.98507,-9.32776c5.08407,-0.69429 20.19138,-2.75738 29.48689,-4.0268c4.4853,-0.61252 8.11875,2.63063 8.55703,5.84002c0.68461,5.01319 2.74383,20.09212 4.0268,29.48689c0.6307,4.61841 -3.0561,8.42716 -6.54363,8.90343c-5.31837,0.72629 -20.95251,2.86132 -29.97834,4.09391c-3.95014,0.53944 -7.01713,-1.89548 -7.57414,-5.97424z" fill="#262626" stroke-width="0"/><path d="M420.68077,-15.80087c-1.20678,-8.83683 -3.23229,-23.66899 -3.95969,-28.99544c-0.51304,-3.75681 2.68196,-8.87668 5.98507,-9.32776c5.08407,-0.69429 20.19138,-2.75738 29.48689,-4.0268c4.4853,-0.61252 8.11875,2.63063 8.55703,5.84002c0.68461,5.01319 2.74383,20.09212 4.0268,29.48689c0.6307,4.61841 -3.0561,8.42716 -6.54363,8.90343c-5.31837,0.72629 -20.95251,2.86132 -29.97834,4.09391c-3.95014,0.53944 -7.01713,-1.89548 -7.57414,-5.97424z" fill="#262626" stroke-width="0"/><path d="M-74.49809,101.93399c-1.20678,-8.83683 -3.23229,-23.66899 -3.95969,-28.99544c-0.51304,-3.75681 2.68196,-8.87668 5.98507,-9.32776c5.08407,-0.69429 20.19138,-2.75738 29.48689,-4.0268c4.4853,-0.61252 8.11875,2.63063 8.55703,5.84002c0.68461,5.01319 2.74383,20.09212 4.0268,29.48689c0.6307,4.61841 -3.0561,8.42716 -6.54363,8.90343c-5.31837,0.72629 -20.95251,2.86132 -29.97834,4.09391c-3.95014,0.53944 -7.01713,-1.89548 -7.57414,-5.97424z" fill="#262626" stroke-width="0"/><path d="M-24.73896,95.13876c-1.20678,-8.83683 -3.23229,-23.66899 -3.95969,-28.99544c-0.51304,-3.75681 2.68196,-8.87668 5.98507,-9.32776c5.08407,-0.69429 20.19138,-2.75738 29.48689,-4.0268c4.4853,-0.61252 8.11875,2.63063 8.55703,5.84002c0.68461,5.01319 2.74383,20.09212 4.0268,29.48689c0.6307,4.61841 -3.0561,8.42716 -6.54363,8.90343c-5.31837,0.72629 -20.95251,2.86132 -29.97834,4.09391c-3.95014,0.53944 -7.01713,-1.89548 -7.57414,-5.97424z" fill="#262626" stroke-width="0"/><path d="M25.71837,88.87395c-1.20678,-8.83683 -3.23229,-23.66899 -3.95969,-28.99544c-0.51304,-3.75681 2.68196,-8.87668 5.98507,-9.32776c5.08407,-0.69429 20.19138,-2.75738 29.48689,-4.0268c4.4853,-0.61252 8.11875,2.63063 8.55703,5.84002c0.68461,5.01319 2.74383,20.09212 4.0268,29.48689c0.6307,4.61841 -3.0561,8.42716 -6.54363,8.90343c-5.31837,0.72629 -20.95251,2.86132 -29.97834,4.09391c-3.95014,0.53944 -7.01713,-1.89548 -7.57414,-5.97424z" fill="#262626" stroke-width="0"/><path d="M75.4775,82.07871c-1.20678,-8.83683 -3.23229,-23.66899 -3.95969,-28.99544c-0.51304,-3.75681 2.68196,-8.87668 5.98507,-9.32776c5.08407,-0.69429 20.19138,-2.75738 29.48689,-4.0268c4.4853,-0.61252 8.11875,2.63063 8.55703,5.84002c0.68461,5.01319 2.74383,20.09212 4.0268,29.48689c0.6307,4.61841 -3.0561,8.42716 -6.54363,8.90343c-5.31837,0.72629 -20.95251,2.86132 -29.97834,4.09391c-3.95014,0.53944 -7.01713,-1.89548 -7.57414,-5.97424z" fill="#262626" stroke-width="0"/><path d="M127.16345,75.64614c-1.20678,-8.83683 -3.23229,-23.66899 -3.95969,-28.99544c-0.51304,-3.75681 2.68196,-8.87668 5.98507,-9.32776c5.08407,-0.69429 20.19138,-2.75738 29.48689,-4.0268c4.4853,-0.61252 8.11875,2.63063 8.55703,5.84002c0.68461,5.01319 2.74383,20.09212 4.0268,29.48689c0.6307,4.61841 -3.0561,8.42716 -6.54363,8.90343c-5.31837,0.72629 -20.95251,2.86132 -29.97834,4.09391c-3.95014,0.53944 -7.01713,-1.89548 -7.57414,-5.97424z" fill="#262626" stroke-width="0"/><path d="M176.92258,68.85092c-1.20678,-8.83683 -3.23229,-23.66899 -3.95969,-28.99544c-0.51304,-3.75681 2.68196,-8.87668 5.98507,-9.32776c5.08407,-0.69429 20.19138,-2.75738 29.48689,-4.0268c4.4853,-0.61252 8.11875,2.63063 8.55703,5.84002c0.68461,5.01319 2.74383,20.09212 4.0268,29.48689c0.6307,4.61841 -3.0561,8.42716 -6.54363,8.90343c-5.31837,0.72629 -20.95251,2.86132 -29.97834,4.09391c-3.95014,0.53944 -7.01713,-1.89548 -7.57414,-5.97424z" fill="#262626" stroke-width="0"/><path d="M227.37991,62.58611c-1.20678,-8.83683 -3.23229,-23.66899 -3.95969,-28.99544c-0.51304,-3.75681 2.68196,-8.87668 5.98507,-9.32776c5.08407,-0.69429 20.19138,-2.75738 29.48689,-4.0268c4.4853,-0.61252 8.11875,2.63063 8.55703,5.84002c0.68461,5.01319 2.74383,20.09212 4.0268,29.48689c0.6307,4.61841 -3.0561,8.42716 -6.54363,8.90343c-5.31837,0.72629 -20.95251,2.86132 -29.97834,4.09391c-3.95014,0.53944 -7.01713,-1.89548 -7.57414,-5.97424z" fill="#262626" stroke-width="0"/><path d="M277.13904,55.79089c-1.20678,-8.83683 -3.23229,-23.66899 -3.95969,-28.99544c-0.51304,-3.75681 2.68196,-8.87668 5.98507,-9.32776c5.08407,-0.69429 20.19138,-2.75738 29.48689,-4.0268c4.4853,-0.61252 8.11875,2.63063 8.55703,5.84002c0.68461,5.01319 2.74383,20.09212 4.0268,29.48689c0.6307,4.61841 -3.0561,8.42716 -6.54363,8.90343c-5.31837,0.72629 -20.95251,2.86132 -29.97834,4.09391c-3.95014,0.53944 -7.01713,-1.89548 -7.57414,-5.97424z" fill="#262626" stroke-width="0"/><path d="M328.21068,49.44218c-1.20678,-8.83683 -3.23229,-23.66899 -3.95969,-28.99544c-0.51304,-3.75681 2.68196,-8.87668 5.98507,-9.32776c5.08407,-0.69429 20.19138,-2.75738 29.48689,-4.0268c4.4853,-0.61252 8.11875,2.63063 8.55703,5.84002c0.68461,5.01319 2.74383,20.09212 4.0268,29.48689c0.6307,4.61841 -3.0561,8.42716 -6.54363,8.90343c-5.31837,0.72629 -20.95251,2.86132 -29.97834,4.09391c-3.95014,0.53944 -7.01713,-1.89548 -7.57414,-5.97424z" fill="#262626" stroke-width="0"/><path d="M378.66801,43.17739c-1.20678,-8.83683 -3.23229,-23.66899 -3.95969,-28.99544c-0.51304,-3.75681 2.68196,-8.87668 5.98507,-9.32776c5.08407,-0.69429 20.19138,-2.75738 29.48689,-4.0268c4.4853,-0.61252 8.11875,2.63063 8.55703,5.84002c0.68461,5.01319 2.74383,20.09212 4.0268,29.48689c0.6307,4.61841 -3.0561,8.42716 -6.54363,8.90343c-5.31837,0.72629 -20.95251,2.86132 -29.97834,4.09391c-3.95014,0.53944 -7.01713,-1.89548 -7.57414,-5.97424z" fill="#262626" stroke-width="0"/><path d="M428.42714,36.38216c-1.20678,-8.83683 -3.23229,-23.66899 -3.95969,-28.99544c-0.51304,-3.75681 2.68196,-8.87668 5.98507,-9.32776c5.08407,-0.69429 20.19138,-2.75738 29.48689,-4.0268c4.4853,-0.61252 8.11875,2.63063 8.55703,5.84002c0.68461,5.01319 2.74383,20.09212 4.0268,29.48689c0.6307,4.61841 -3.0561,8.42716 -6.54363,8.90343c-5.31837,0.72629 -20.95251,2.86132 -29.97834,4.09391c-3.95014,0.53944 -7.01713,-1.89548 -7.57414,-5.97424z" fill="#262626" stroke-width="0"/><path d="M-67.98289,154.18368c-1.20678,-8.83683 -3.23229,-23.66899 -3.95969,-28.99544c-0.51304,-3.75681 2.68196,-8.87668 5.98507,-9.32776c5.08407,-0.69429 20.19138,-2.75738 29.48689,-4.0268c4.4853,-0.61252 8.11875,2.63063 8.55703,5.84002c0.68461,5.01319 2.74383,20.09212 4.0268,29.48689c0.6307,4.61841 -3.0561,8.42716 -6.54363,8.90343c-5.31837,0.72629 -20.95251,2.86132 -29.97834,4.09391c-3.95014,0.53944 -7.01713,-1.89548 -7.57414,-5.97424z" fill="#262626" stroke-width="0"/><path d="M-18.22376,147.38844c-1.20678,-8.83683 -3.23229,-23.66899 -3.95969,-28.99544c-0.51304,-3.75681 2.68196,-8.87668 5.98507,-9.32776c5.08407,-0.69429 20.19138,-2.75738 29.48689,-4.0268c4.4853,-0.61252 8.11875,2.63063 8.55703,5.84002c0.68461,5.01319 2.74383,20.09212 4.0268,29.48689c0.6307,4.61841 -3.0561,8.42716 -6.54363,8.90343c-5.31837,0.72629 -20.95251,2.86132 -29.97834,4.09391c-3.95014,0.53944 -7.01713,-1.89548 -7.57414,-5.97424z" fill="#262626" stroke-width="0"/><path d="M32.23357,141.12365c-1.20678,-8.83683 -3.23229,-23.66899 -3.95969,-28.99544c-0.51304,-3.75681 2.68196,-8.87668 5.98507,-9.32776c5.08407,-0.69429 20.19138,-2.75738 29.48689,-4.0268c4.4853,-0.61252 8.11875,2.63063 8.55703,5.84002c0.68461,5.01319 2.74383,20.09212 4.0268,29.48689c0.6307,4.61841 -3.0561,8.42716 -6.54363,8.90343c-5.31837,0.72629 -20.95251,2.86132 -29.97834,4.09391c-3.95014,0.53944 -7.01713,-1.89548 -7.57414,-5.97424z" fill="#262626" stroke-width="0"/><path d="M81.9927,134.32844c-1.20678,-8.83683 -3.23229,-23.66899 -3.95969,-28.99544c-0.51304,-3.75681 2.68196,-8.87668 5.98507,-9.32776c5.08407,-0.69429 20.19138,-2.75738 29.48689,-4.0268c4.4853,-0.61252 8.11875,2.63063 8.55703,5.84002c0.68461,5.01319 2.74383,20.09212 4.0268,29.48689c0.6307,4.61841 -3.0561,8.42716 -6.54363,8.90343c-5.31837,0.72629 -20.95251,2.86132 -29.97834,4.09391c-3.95014,0.53944 -7.01713,-1.89548 -7.57414,-5.97424z" fill="#262626" stroke-width="0"/><path d="M133.67865,127.89585c-1.20678,-8.83683 -3.23229,-23.66899 -3.95969,-28.99544c-0.51304,-3.75681 2.68196,-8.87668 5.98507,-9.32776c5.08407,-0.69429 20.19138,-2.75738 29.48689,-4.0268c4.4853,-0.61252 8.11875,2.63063 8.55703,5.84002c0.68461,5.01319 2.74383,20.09212 4.0268,29.48689c0.6307,4.61841 -3.0561,8.42716 -6.54363,8.90343c-5.31837,0.72629 -20.95251,2.86132 -29.97834,4.09391c-3.95014,0.53944 -7.01713,-1.89548 -7.57414,-5.97424z" fill="#262626" stroke-width="0"/><path d="M183.43778,121.10062c-1.20678,-8.83683 -3.23229,-23.66899 -3.95969,-28.99544c-0.51304,-3.75681 2.68196,-8.87668 5.98507,-9.32776c5.08407,-0.69429 20.19138,-2.75738 29.48689,-4.0268c4.4853,-0.61252 8.11875,2.63063 8.55703,5.84002c0.68461,5.01319 2.74383,20.09212 4.0268,29.48689c0.6307,4.61841 -3.0561,8.42716 -6.54363,8.90343c-5.31837,0.72629 -20.95251,2.86132 -29.97834,4.09391c-3.95014,0.53944 -7.01713,-1.89548 -7.57414,-5.97424z" fill="#262626" stroke-width="0"/><path d="M233.89511,114.83581c-1.20678,-8.83683 -3.23229,-23.66899 -3.95969,-28.99544c-0.51304,-3.75681 2.68196,-8.87668 5.98507,-9.32776c5.08407,-0.69429 20.19138,-2.75738 29.48689,-4.0268c4.4853,-0.61252 8.11875,2.63063 8.55703,5.84002c0.68461,5.01319 2.74383,20.09212 4.0268,29.48689c0.6307,4.61841 -3.0561,8.42716 -6.54363,8.90343c-5.31837,0.72629 -20.95251,2.86132 -29.97834,4.09391c-3.95014,0.53944 -7.01713,-1.89548 -7.57414,-5.97424z" fill="#262626" stroke-width="0"/><path d="M283.65424,108.0406c-1.20678,-8.83683 -3.23229,-23.66899 -3.95969,-28.99544c-0.51304,-3.75681 2.68196,-8.87668 5.98507,-9.32776c5.08407,-0.69429 20.19138,-2.75738 29.48689,-4.0268c4.4853,-0.61252 8.11875,2.63063 8.55703,5.84002c0.68461,5.01319 2.74383,20.09212 4.0268,29.48689c0.6307,4.61841 -3.0561,8.42716 -6.54363,8.90343c-5.31837,0.72629 -20.95251,2.86132 -29.97834,4.09391c-3.95014,0.53944 -7.01713,-1.89548 -7.57414,-5.97424z" fill="#262626" stroke-width="0"/><path d="M334.72588,101.69189c-1.20678,-8.83683 -3.23229,-23.66899 -3.95969,-28.99544c-0.51304,-3.75681 2.68196,-8.87668 5.98507,-9.32776c5.08407,-0.69429 20.19138,-2.75738 29.48689,-4.0268c4.4853,-0.61252 8.11875,2.63063 8.55703,5.84002c0.68461,5.01319 2.74383,20.09212 4.0268,29.48689c0.6307,4.61841 -3.0561,8.42716 -6.54363,8.90343c-5.31837,0.72629 -20.95251,2.86132 -29.97834,4.09391c-3.95014,0.53944 -7.01713,-1.89548 -7.57414,-5.97424z" fill="#262626" stroke-width="0"/><path d="M385.18322,95.4271c-1.20678,-8.83683 -3.23229,-23.66899 -3.95969,-28.99544c-0.51304,-3.75681 2.68196,-8.87668 5.98507,-9.32776c5.08407,-0.69429 20.19138,-2.75738 29.48689,-4.0268c4.4853,-0.61252 8.11875,2.63063 8.55703,5.84002c0.68461,5.01319 2.74383,20.09212 4.0268,29.48689c0.6307,4.61841 -3.0561,8.42716 -6.54363,8.90343c-5.31837,0.72629 -20.95251,2.86132 -29.97834,4.09391c-3.95014,0.53944 -7.01713,-1.89548 -7.57414,-5.97424z" fill="#262626" stroke-width="0"/><path d="M434.94234,88.63187c-1.20678,-8.83683 -3.23229,-23.66899 -3.95969,-28.99544c-0.51304,-3.75681 2.68196,-8.87668 5.98507,-9.32776c5.08407,-0.69429 20.19138,-2.75738 29.48689,-4.0268c4.4853,-0.61252 8.11875,2.63063 8.55703,5.84002c0.68461,5.01319 2.74383,20.09212 4.0268,29.48689c0.6307,4.61841 -3.0561,8.42716 -6.54363,8.90343c-5.31837,0.72629 -20.95251,2.86132 -29.97834,4.09391c-3.95014,0.53944 -7.01713,-1.89548 -7.57414,-5.97424z" fill="#262626" stroke-width="0"/><path d="M-60.23652,206.36672c-1.20678,-8.83683 -3.23229,-23.66899 -3.95969,-28.99544c-0.51304,-3.75681 2.68196,-8.87668 5.98507,-9.32776c5.08407,-0.69429 20.19138,-2.75738 29.48689,-4.0268c4.4853,-0.61252 8.11875,2.63063 8.55703,5.84002c0.68461,5.01319 2.74383,20.09212 4.0268,29.48689c0.6307,4.61841 -3.0561,8.42716 -6.54363,8.90343c-5.31837,0.72629 -20.95251,2.86132 -29.97834,4.09391c-3.95014,0.53944 -7.01713,-1.89548 -7.57414,-5.97424z" fill="#262626" stroke-width="0"/><path d="M-10.47738,199.57151c-1.20678,-8.83683 -3.23229,-23.66899 -3.95969,-28.99544c-0.51304,-3.75681 2.68196,-8.87668 5.98507,-9.32776c5.08407,-0.69429 20.19138,-2.75738 29.48689,-4.0268c4.4853,-0.61252 8.11875,2.63063 8.55703,5.84002c0.68461,5.01319 2.74383,20.09212 4.0268,29.48689c0.6307,4.61841 -3.0561,8.42716 -6.54363,8.90343c-5.31837,0.72629 -20.95251,2.86132 -29.97834,4.09391c-3.95014,0.53944 -7.01713,-1.89548 -7.57414,-5.97424z" fill="#262626" stroke-width="0"/><path d="M39.97995,193.3067c-1.20678,-8.83683 -3.23229,-23.66899 -3.95969,-28.99544c-0.51304,-3.75681 2.68196,-8.87668 5.98507,-9.32776c5.08407,-0.69429 20.19138,-2.75738 29.48689,-4.0268c4.4853,-0.61252 8.11875,2.63063 8.55703,5.84002c0.68461,5.01319 2.74383,20.09212 4.0268,29.48689c0.6307,4.61841 -3.0561,8.42716 -6.54363,8.90343c-5.31837,0.72629 -20.95251,2.86132 -29.97834,4.09391c-3.95014,0.53944 -7.01713,-1.89548 -7.57414,-5.97424z" fill="#262626" stroke-width="0"/><path d="M89.73908,186.51147c-1.20678,-8.83683 -3.23229,-23.66899 -3.95969,-28.99544c-0.51304,-3.75681 2.68196,-8.87668 5.98507,-9.32776c5.08407,-0.69429 20.19138,-2.75738 29.48689,-4.0268c4.4853,-0.61252 8.11875,2.63063 8.55703,5.84002c0.68461,5.01319 2.74383,20.09212 4.0268,29.48689c0.6307,4.61841 -3.0561,8.42716 -6.54363,8.90343c-5.31837,0.72629 -20.95251,2.86132 -29.97834,4.09391c-3.95014,0.53944 -7.01713,-1.89548 -7.57414,-5.97424z" fill="#262626" stroke-width="0"/><path d="M141.42503,180.0789c-1.20678,-8.83683 -3.23229,-23.66899 -3.95969,-28.99544c-0.51304,-3.75681 2.68196,-8.87668 5.98507,-9.32776c5.08407,-0.69429 20.19138,-2.75738 29.48689,-4.0268c4.4853,-0.61252 8.11875,2.63063 8.55703,5.84002c0.68461,5.01319 2.74383,20.09212 4.0268,29.48689c0.6307,4.61841 -3.0561,8.42716 -6.54363,8.90343c-5.31837,0.72629 -20.95251,2.86132 -29.97834,4.09391c-3.95014,0.53944 -7.01713,-1.89548 -7.57414,-5.97424z" fill="#262626" stroke-width="0"/><path d="M191.18416,173.28367c-1.20678,-8.83683 -3.23229,-23.66899 -3.95969,-28.99544c-0.51304,-3.75681 2.68196,-8.87668 5.98507,-9.32776c5.08407,-0.69429 20.19138,-2.75738 29.48689,-4.0268c4.4853,-0.61252 8.11875,2.63063 8.55703,5.84002c0.68461,5.01319 2.74383,20.09212 4.0268,29.48689c0.6307,4.61841 -3.0561,8.42716 -6.54363,8.90343c-5.31837,0.72629 -20.95251,2.86132 -29.97834,4.09391c-3.95014,0.53944 -7.01713,-1.89548 -7.57414,-5.97424z" fill="#262626" stroke-width="0"/><path d="M241.64149,167.01883c-1.20678,-8.83683 -3.23229,-23.66899 -3.95969,-28.99544c-0.51304,-3.75681 2.68196,-8.87668 5.98507,-9.32776c5.08407,-0.69429 20.19138,-2.75738 29.48689,-4.0268c4.4853,-0.61252 8.11875,2.63063 8.55703,5.84002c0.68461,5.01319 2.74383,20.09212 4.0268,29.48689c0.6307,4.61841 -3.0561,8.42716 -6.54363,8.90343c-5.31837,0.72629 -20.95251,2.86132 -29.97834,4.09391c-3.95014,0.53944 -7.01713,-1.89548 -7.57414,-5.97424z" fill="#262626" stroke-width="0"/><path d="M291.40062,160.22362c-1.20678,-8.83683 -3.23229,-23.66899 -3.95969,-28.99544c-0.51304,-3.75681 2.68196,-8.87668 5.98507,-9.32776c5.08407,-0.69429 20.19138,-2.75738 29.48689,-4.0268c4.4853,-0.61252 8.11875,2.63063 8.55703,5.84002c0.68461,5.01319 2.74383,20.09212 4.0268,29.48689c0.6307,4.61841 -3.0561,8.42716 -6.54363,8.90343c-5.31837,0.72629 -20.95251,2.86132 -29.97834,4.09391c-3.95014,0.53944 -7.01713,-1.89548 -7.57414,-5.97424z" fill="#262626" stroke-width="0"/><path d="M342.47226,153.87491c-1.20678,-8.83683 -3.23229,-23.66899 -3.95969,-28.99544c-0.51304,-3.75681 2.68196,-8.87668 5.98507,-9.32776c5.08407,-0.69429 20.19138,-2.75738 29.48689,-4.0268c4.4853,-0.61252 8.11875,2.63063 8.55703,5.84002c0.68461,5.01319 2.74383,20.09212 4.0268,29.48689c0.6307,4.61841 -3.0561,8.42716 -6.54363,8.90343c-5.31837,0.72629 -20.95251,2.86132 -29.97834,4.09391c-3.95014,0.53944 -7.01713,-1.89548 -7.57414,-5.97424z" fill="#262626" stroke-width="0"/><path d="M392.92959,147.61014c-1.20678,-8.83683 -3.23229,-23.66899 -3.95969,-28.99544c-0.51304,-3.75681 2.68196,-8.87668 5.98507,-9.32776c5.08407,-0.69429 20.19138,-2.75738 29.48689,-4.0268c4.4853,-0.61252 8.11875,2.63063 8.55703,5.84002c0.68461,5.01319 2.74383,20.09212 4.0268,29.48689c0.6307,4.61841 -3.0561,8.42716 -6.54363,8.90343c-5.31837,0.72629 -20.95251,2.86132 -29.97834,4.09391c-3.95014,0.53944 -7.01713,-1.89548 -7.57414,-5.97424z" fill="#262626" stroke-width="0"/><path d="M442.68872,140.81491c-1.20678,-8.83683 -3.23229,-23.66899 -3.95969,-28.99544c-0.51304,-3.75681 2.68196,-8.87668 5.98507,-9.32776c5.08407,-0.69429 20.19138,-2.75738 29.48689,-4.0268c4.4853,-0.61252 8.11875,2.63063 8.55703,5.84002c0.68461,5.01319 2.74383,20.09212 4.0268,29.48689c0.6307,4.61841 -3.0561,8.42716 -6.54363,8.90343c-5.31837,0.72629 -20.95251,2.86132 -29.97834,4.09391c-3.95014,0.53944 -7.01713,-1.89548 -7.57414,-5.97424z" fill="#262626" stroke-width="0"/><path d="M-54.05687,256.15918c-1.20678,-8.83683 -3.23229,-23.66899 -3.95969,-28.99544c-0.51304,-3.75681 2.68196,-8.87668 5.98507,-9.32776c5.08407,-0.69429 20.19138,-2.75738 29.48689,-4.0268c4.4853,-0.61252 8.11875,2.63063 8.55703,5.84002c0.68461,5.01319 2.74383,20.09212 4.0268,29.48689c0.6307,4.61841 -3.0561,8.42716 -6.54363,8.90343c-5.31837,0.72629 -20.95251,2.86132 -29.97834,4.09391c-3.95014,0.53944 -7.01713,-1.89548 -7.57414,-5.97424z" fill="#262626" stroke-width="0"/><path d="M-4.29774,249.36395c-1.20678,-8.83683 -3.23229,-23.66899 -3.95969,-28.99544c-0.51304,-3.75681 2.68196,-8.87668 5.98507,-9.32776c5.08407,-0.69429 20.19138,-2.75738 29.48689,-4.0268c4.4853,-0.61252 8.11875,2.63063 8.55703,5.84002c0.68461,5.01319 2.74383,20.09212 4.0268,29.48689c0.6307,4.61841 -3.0561,8.42716 -6.54363,8.90343c-5.31837,0.72629 -20.95251,2.86132 -29.97834,4.09391c-3.95014,0.53944 -7.01713,-1.89548 -7.57414,-5.97424z" fill="#262626" stroke-width="0"/><path d="M46.15959,243.09916c-1.20678,-8.83683 -3.23229,-23.66899 -3.95969,-28.99544c-0.51304,-3.75681 2.68196,-8.87668 5.98507,-9.32776c5.08407,-0.69429 20.19138,-2.75738 29.48689,-4.0268c4.4853,-0.61252 8.11875,2.63063 8.55703,5.84002c0.68461,5.01319 2.74383,20.09212 4.0268,29.48689c0.6307,4.61841 -3.0561,8.42716 -6.54363,8.90343c-5.31837,0.72629 -20.95251,2.86132 -29.97834,4.09391c-3.95014,0.53944 -7.01713,-1.89548 -7.57414,-5.97424z" fill="#262626" stroke-width="0"/><path d="M95.91872,236.30395c-1.20678,-8.83683 -3.23229,-23.66899 -3.95969,-28.99544c-0.51304,-3.75681 2.68196,-8.87668 5.98507,-9.32776c5.08407,-0.69429 20.19138,-2.75738 29.48689,-4.0268c4.4853,-0.61252 8.11875,2.63063 8.55703,5.84002c0.68461,5.01319 2.74383,20.09212 4.0268,29.48689c0.6307,4.61841 -3.0561,8.42716 -6.54363,8.90343c-5.31837,0.72629 -20.95251,2.86132 -29.97834,4.09391c-3.95014,0.53944 -7.01713,-1.89548 -7.57414,-5.97424z" fill="#262626" stroke-width="0"/><path d="M147.60467,229.87136c-1.20678,-8.83683 -3.23229,-23.66899 -3.95969,-28.99544c-0.51304,-3.75681 2.68196,-8.87668 5.98507,-9.32776c5.08407,-0.69429 20.19138,-2.75738 29.48689,-4.0268c4.4853,-0.61252 8.11875,2.63063 8.55703,5.84002c0.68461,5.01319 2.74383,20.09212 4.0268,29.48689c0.6307,4.61841 -3.0561,8.42716 -6.54363,8.90343c-5.31837,0.72629 -20.95251,2.86132 -29.97834,4.09391c-3.95014,0.53944 -7.01713,-1.89548 -7.57414,-5.97424z" fill="#262626" stroke-width="0"/><path d="M197.3638,223.07611c-1.20678,-8.83683 -3.23229,-23.66899 -3.95969,-28.99544c-0.51304,-3.75681 2.68196,-8.87668 5.98507,-9.32776c5.08407,-0.69429 20.19138,-2.75738 29.48689,-4.0268c4.4853,-0.61252 8.11875,2.63063 8.55703,5.84002c0.68461,5.01319 2.74383,20.09212 4.0268,29.48689c0.6307,4.61841 -3.0561,8.42716 -6.54363,8.90343c-5.31837,0.72629 -20.95251,2.86132 -29.97834,4.09391c-3.95014,0.53944 -7.01713,-1.89548 -7.57414,-5.97424z" fill="#262626" stroke-width="0"/><path d="M247.82113,216.81131c-1.20678,-8.83683 -3.23229,-23.66899 -3.95969,-28.99544c-0.51304,-3.75681 2.68196,-8.87668 5.98507,-9.32776c5.08407,-0.69429 20.19138,-2.75738 29.48689,-4.0268c4.4853,-0.61252 8.11875,2.63063 8.55703,5.84002c0.68461,5.01319 2.74383,20.09212 4.0268,29.48689c0.6307,4.61841 -3.0561,8.42716 -6.54363,8.90343c-5.31837,0.72629 -20.95251,2.86132 -29.97834,4.09391c-3.95014,0.53944 -7.01713,-1.89548 -7.57414,-5.97424z" fill="#262626" stroke-width="0"/><path d="M297.58026,210.01611c-1.20678,-8.83683 -3.23229,-23.66899 -3.95969,-28.99544c-0.51304,-3.75681 2.68196,-8.87668 5.98507,-9.32776c5.08407,-0.69429 20.19138,-2.75738 29.48689,-4.0268c4.4853,-0.61252 8.11875,2.63063 8.55703,5.84002c0.68461,5.01319 2.74383,20.09212 4.0268,29.48689c0.6307,4.61841 -3.0561,8.42716 -6.54363,8.90343c-5.31837,0.72629 -20.95251,2.86132 -29.97834,4.09391c-3.95014,0.53944 -7.01713,-1.89548 -7.57414,-5.97424z" fill="#262626" stroke-width="0"/><path d="M348.6519,203.6674c-1.20678,-8.83683 -3.23229,-23.66899 -3.95969,-28.99544c-0.51304,-3.75681 2.68196,-8.87668 5.98507,-9.32776c5.08407,-0.69429 20.19138,-2.75738 29.48689,-4.0268c4.4853,-0.61252 8.11875,2.63063 8.55703,5.84002c0.68461,5.01319 2.74383,20.09212 4.0268,29.48689c0.6307,4.61841 -3.0561,8.42716 -6.54363,8.90343c-5.31837,0.72629 -20.95251,2.86132 -29.97834,4.09391c-3.95014,0.53944 -7.01713,-1.89548 -7.57414,-5.97424z" fill="#262626" stroke-width="0"/><path d="M399.10923,197.40261c-1.20678,-8.83683 -3.23229,-23.66899 -3.95969,-28.99544c-0.51304,-3.75681 2.68196,-8.87668 5.98507,-9.32776c5.08407,-0.69429 20.19138,-2.75738 29.48689,-4.0268c4.4853,-0.61252 8.11875,2.63063 8.55703,5.84002c0.68461,5.01319 2.74383,20.09212 4.0268,29.48689c0.6307,4.61841 -3.0561,8.42716 -6.54363,8.90343c-5.31837,0.72629 -20.95251,2.86132 -29.97834,4.09391c-3.95014,0.53944 -7.01713,-1.89548 -7.57414,-5.97424z" fill="#262626" stroke-width="0"/><path d="M448.86836,190.60736c-1.20678,-8.83683 -3.23229,-23.66899 -3.95969,-28.99544c-0.51304,-3.75681 2.68196,-8.87668 5.98507,-9.32776c5.08407,-0.69429 20.19138,-2.75738 29.48689,-4.0268c4.4853,-0.61252 8.11875,2.63063 8.55703,5.84002c0.68461,5.01319 2.74383,20.09212 4.0268,29.48689c0.6307,4.61841 -3.0561,8.42716 -6.54363,8.90343c-5.31837,0.72629 -20.95251,2.86132 -29.97834,4.09391c-3.95014,0.53944 -7.01713,-1.89548 -7.57414,-5.97424z" fill="#262626" stroke-width="0"/><path d="M-46.31051,308.34218c-1.20678,-8.83683 -3.23229,-23.66899 -3.95969,-28.99544c-0.51304,-3.75681 2.68196,-8.87668 5.98507,-9.32776c5.08407,-0.69429 20.19138,-2.75738 29.48689,-4.0268c4.4853,-0.61252 8.11875,2.63063 8.55703,5.84002c0.68461,5.01319 2.74383,20.09212 4.0268,29.48689c0.6307,4.61841 -3.0561,8.42716 -6.54363,8.90343c-5.31837,0.72629 -20.95251,2.86132 -29.97834,4.09391c-3.95014,0.53944 -7.01713,-1.89548 -7.57414,-5.97424z" fill="#262626" stroke-width="0"/><path d="M3.44863,301.54697c-1.20678,-8.83683 -3.23229,-23.66899 -3.95969,-28.99544c-0.51304,-3.75681 2.68196,-8.87668 5.98507,-9.32776c5.08407,-0.69429 20.19138,-2.75738 29.48689,-4.0268c4.4853,-0.61252 8.11875,2.63063 8.55703,5.84002c0.68461,5.01319 2.74383,20.09212 4.0268,29.48689c0.6307,4.61841 -3.0561,8.42716 -6.54363,8.90343c-5.31837,0.72629 -20.95251,2.86132 -29.97834,4.09391c-3.95014,0.53944 -7.01713,-1.89548 -7.57414,-5.97424z" fill="#262626" stroke-width="0"/><path d="M53.90596,295.2822c-1.20678,-8.83683 -3.23229,-23.66899 -3.95969,-28.99544c-0.51304,-3.75681 2.68196,-8.87668 5.98507,-9.32776c5.08407,-0.69429 20.19138,-2.75738 29.48689,-4.0268c4.4853,-0.61252 8.11875,2.63063 8.55703,5.84002c0.68461,5.01319 2.74383,20.09212 4.0268,29.48689c0.6307,4.61841 -3.0561,8.42716 -6.54363,8.90343c-5.31837,0.72629 -20.95251,2.86132 -29.97834,4.09391c-3.95014,0.53944 -7.01713,-1.89548 -7.57414,-5.97424z" fill="#262626" stroke-width="0"/><path d="M103.66509,288.48697c-1.20678,-8.83683 -3.23229,-23.66899 -3.95969,-28.99544c-0.51304,-3.75681 2.68196,-8.87668 5.98507,-9.32776c5.08407,-0.69429 20.19138,-2.75738 29.48689,-4.0268c4.4853,-0.61252 8.11875,2.63063 8.55703,5.84002c0.68461,5.01319 2.74383,20.09212 4.0268,29.48689c0.6307,4.61841 -3.0561,8.42716 -6.54363,8.90343c-5.31837,0.72629 -20.95251,2.86132 -29.97834,4.09391c-3.95014,0.53944 -7.01713,-1.89548 -7.57414,-5.97424z" fill="#262626" stroke-width="0"/><path d="M155.35104,282.05436c-1.20678,-8.83683 -3.23229,-23.66899 -3.95969,-28.99544c-0.51304,-3.75681 2.68196,-8.87668 5.98507,-9.32776c5.08407,-0.69429 20.19138,-2.75738 29.48689,-4.0268c4.4853,-0.61252 8.11875,2.63063 8.55703,5.84002c0.68461,5.01319 2.74383,20.09212 4.0268,29.48689c0.6307,4.61841 -3.0561,8.42716 -6.54363,8.90343c-5.31837,0.72629 -20.95251,2.86132 -29.97834,4.09391c-3.95014,0.53944 -7.01713,-1.89548 -7.57414,-5.97424z" fill="#262626" stroke-width="0"/><path d="M205.11017,275.25917c-1.20678,-8.83683 -3.23229,-23.66899 -3.95969,-28.99544c-0.51304,-3.75681 2.68196,-8.87668 5.98507,-9.32776c5.08407,-0.69429 20.19138,-2.75738 29.48689,-4.0268c4.4853,-0.61252 8.11875,2.63063 8.55703,5.84002c0.68461,5.01319 2.74383,20.09212 4.0268,29.48689c0.6307,4.61841 -3.0561,8.42716 -6.54363,8.90343c-5.31837,0.72629 -20.95251,2.86132 -29.97834,4.09391c-3.95014,0.53944 -7.01713,-1.89548 -7.57414,-5.97424z" fill="#262626" stroke-width="0"/><path d="M255.5675,268.99433c-1.20678,-8.83683 -3.23229,-23.66899 -3.95969,-28.99544c-0.51304,-3.75681 2.68196,-8.87668 5.98507,-9.32776c5.08407,-0.69429 20.19138,-2.75738 29.48689,-4.0268c4.4853,-0.61252 8.11875,2.63063 8.55703,5.84002c0.68461,5.01319 2.74383,20.09212 4.0268,29.48689c0.6307,4.61841 -3.0561,8.42716 -6.54363,8.90343c-5.31837,0.72629 -20.95251,2.86132 -29.97834,4.09391c-3.95014,0.53944 -7.01713,-1.89548 -7.57414,-5.97424z" fill="#262626" stroke-width="0"/><path d="M305.32663,262.19912c-1.20678,-8.83683 -3.23229,-23.66899 -3.95969,-28.99544c-0.51304,-3.75681 2.68196,-8.87668 5.98507,-9.32776c5.08407,-0.69429 20.19138,-2.75738 29.48689,-4.0268c4.4853,-0.61252 8.11875,2.63063 8.55703,5.84002c0.68461,5.01319 2.74383,20.09212 4.0268,29.48689c0.6307,4.61841 -3.0561,8.42716 -6.54363,8.90343c-5.31837,0.72629 -20.95251,2.86132 -29.97834,4.09391c-3.95014,0.53944 -7.01713,-1.89548 -7.57414,-5.97424z" fill="#262626" stroke-width="0"/><path d="M356.39827,255.85044c-1.20678,-8.83683 -3.23229,-23.66899 -3.95969,-28.99544c-0.51304,-3.75681 2.68196,-8.87668 5.98507,-9.32776c5.08407,-0.69429 20.19138,-2.75738 29.48689,-4.0268c4.4853,-0.61252 8.11875,2.63063 8.55703,5.84002c0.68461,5.01319 2.74383,20.09212 4.0268,29.48689c0.6307,4.61841 -3.0561,8.42716 -6.54363,8.90343c-5.31837,0.72629 -20.95251,2.86132 -29.97834,4.09391c-3.95014,0.53944 -7.01713,-1.89548 -7.57414,-5.97424z" fill="#262626" stroke-width="0"/><path d="M406.8556,249.58565c-1.20678,-8.83683 -3.23229,-23.66899 -3.95969,-28.99544c-0.51304,-3.75681 2.68196,-8.87668 5.98507,-9.32776c5.08407,-0.69429 20.19138,-2.75738 29.48689,-4.0268c4.4853,-0.61252 8.11875,2.63063 8.55703,5.84002c0.68461,5.01319 2.74383,20.09212 4.0268,29.48689c0.6307,4.61841 -3.0561,8.42716 -6.54363,8.90343c-5.31837,0.72629 -20.95251,2.86132 -29.97834,4.09391c-3.95014,0.53944 -7.01713,-1.89548 -7.57414,-5.97424z" fill="#262626" stroke-width="0"/><path d="M456.61473,242.79043c-1.20678,-8.83683 -3.23229,-23.66899 -3.95969,-28.99544c-0.51304,-3.75681 2.68196,-8.87668 5.98507,-9.32776c5.08407,-0.69429 20.19138,-2.75738 29.48689,-4.0268c4.4853,-0.61252 8.11875,2.63063 8.55703,5.84002c0.68461,5.01319 2.74383,20.09212 4.0268,29.48689c0.6307,4.61841 -3.0561,8.42716 -6.54363,8.90343c-5.31837,0.72629 -20.95251,2.86132 -29.97834,4.09391c-3.95014,0.53944 -7.01713,-1.89548 -7.57414,-5.97424z" fill="#262626" stroke-width="0"/><path d="M-39.79529,360.59196c-1.20678,-8.83683 -3.23229,-23.66899 -3.95969,-28.99544c-0.51304,-3.75681 2.68196,-8.87668 5.98507,-9.32776c5.08407,-0.69429 20.19138,-2.75738 29.48689,-4.0268c4.4853,-0.61252 8.11875,2.63063 8.55703,5.84002c0.68461,5.01319 2.74383,20.09212 4.0268,29.48689c0.6307,4.61841 -3.0561,8.42716 -6.54363,8.90343c-5.31837,0.72629 -20.95251,2.86132 -29.97834,4.09391c-3.95014,0.53944 -7.01713,-1.89548 -7.57414,-5.97424z" fill="#262626" stroke-width="0"/><path d="M9.96383,353.79672c-1.20678,-8.83683 -3.23229,-23.66899 -3.95969,-28.99544c-0.51304,-3.75681 2.68196,-8.87668 5.98507,-9.32776c5.08407,-0.69429 20.19138,-2.75738 29.48689,-4.0268c4.4853,-0.61252 8.11875,2.63063 8.55703,5.84002c0.68461,5.01319 2.74383,20.09212 4.0268,29.48689c0.6307,4.61841 -3.0561,8.42716 -6.54363,8.90343c-5.31837,0.72629 -20.95251,2.86132 -29.97834,4.09391c-3.95014,0.53944 -7.01713,-1.89548 -7.57414,-5.97424z" fill="#262626" stroke-width="0"/><path d="M60.42117,347.53194c-1.20678,-8.83683 -3.23229,-23.66899 -3.95969,-28.99544c-0.51304,-3.75681 2.68196,-8.87668 5.98507,-9.32776c5.08407,-0.69429 20.19138,-2.75738 29.48689,-4.0268c4.4853,-0.61252 8.11875,2.63063 8.55703,5.84002c0.68461,5.01319 2.74383,20.09212 4.0268,29.48689c0.6307,4.61841 -3.0561,8.42716 -6.54363,8.90343c-5.31837,0.72629 -20.95251,2.86132 -29.97834,4.09391c-3.95014,0.53944 -7.01713,-1.89548 -7.57414,-5.97424z" fill="#262626" stroke-width="0"/><path d="M110.18029,340.73669c-1.20678,-8.83683 -3.23229,-23.66899 -3.95969,-28.99544c-0.51304,-3.75681 2.68196,-8.87668 5.98507,-9.32776c5.08407,-0.69429 20.19138,-2.75738 29.48689,-4.0268c4.4853,-0.61252 8.11875,2.63063 8.55703,5.84002c0.68461,5.01319 2.74383,20.09212 4.0268,29.48689c0.6307,4.61841 -3.0561,8.42716 -6.54363,8.90343c-5.31837,0.72629 -20.95251,2.86132 -29.97834,4.09391c-3.95014,0.53944 -7.01713,-1.89548 -7.57414,-5.97424z" fill="#262626" stroke-width="0"/><path d="M161.86625,334.30404c-1.20678,-8.83683 -3.23229,-23.66899 -3.95969,-28.99544c-0.51304,-3.75681 2.68196,-8.87668 5.98507,-9.32776c5.08407,-0.69429 20.19138,-2.75738 29.48689,-4.0268c4.4853,-0.61252 8.11875,2.63063 8.55703,5.84002c0.68461,5.01319 2.74383,20.09212 4.0268,29.48689c0.6307,4.61841 -3.0561,8.42716 -6.54363,8.90343c-5.31837,0.72629 -20.95251,2.86132 -29.97834,4.09391c-3.95014,0.53944 -7.01713,-1.89548 -7.57414,-5.97424z" fill="#262626" stroke-width="0"/><path d="M211.62537,327.50883c-1.20678,-8.83683 -3.23229,-23.66899 -3.95969,-28.99544c-0.51304,-3.75681 2.68196,-8.87668 5.98507,-9.32776c5.08407,-0.69429 20.19138,-2.75738 29.48689,-4.0268c4.4853,-0.61252 8.11875,2.63063 8.55703,5.84002c0.68461,5.01319 2.74383,20.09212 4.0268,29.48689c0.6307,4.61841 -3.0561,8.42716 -6.54363,8.90343c-5.31837,0.72629 -20.95251,2.86132 -29.97834,4.09391c-3.95014,0.53944 -7.01713,-1.89548 -7.57414,-5.97424z" fill="#262626" stroke-width="0"/><path d="M262.08271,321.24406c-1.20678,-8.83683 -3.23229,-23.66899 -3.95969,-28.99544c-0.51304,-3.75681 2.68196,-8.87668 5.98507,-9.32776c5.08407,-0.69429 20.19138,-2.75738 29.48689,-4.0268c4.4853,-0.61252 8.11875,2.63063 8.55703,5.84002c0.68461,5.01319 2.74383,20.09212 4.0268,29.48689c0.6307,4.61841 -3.0561,8.42716 -6.54363,8.90343c-5.31837,0.72629 -20.95251,2.86132 -29.97834,4.09391c-3.95014,0.53944 -7.01713,-1.89548 -7.57414,-5.97424z" fill="#262626" stroke-width="0"/><path d="M311.84183,314.44883c-1.20678,-8.83683 -3.23229,-23.66899 -3.95969,-28.99544c-0.51304,-3.75681 2.68196,-8.87668 5.98507,-9.32776c5.08407,-0.69429 20.19138,-2.75738 29.48689,-4.0268c4.4853,-0.61252 8.11875,2.63063 8.55703,5.84002c0.68461,5.01319 2.74383,20.09212 4.0268,29.48689c0.6307,4.61841 -3.0561,8.42716 -6.54363,8.90343c-5.31837,0.72629 -20.95251,2.86132 -29.97834,4.09391c-3.95014,0.53944 -7.01713,-1.89548 -7.57414,-5.97424z" fill="#262626" stroke-width="0"/><path d="M362.91348,308.10011c-1.20678,-8.83683 -3.23229,-23.66899 -3.95969,-28.99544c-0.51304,-3.75681 2.68196,-8.87668 5.98507,-9.32776c5.08407,-0.69429 20.19138,-2.75738 29.48689,-4.0268c4.4853,-0.61252 8.11875,2.63063 8.55703,5.84002c0.68461,5.01319 2.74383,20.09212 4.0268,29.48689c0.6307,4.61841 -3.0561,8.42716 -6.54363,8.90343c-5.31837,0.72629 -20.95251,2.86132 -29.97834,4.09391c-3.95014,0.53944 -7.01713,-1.89548 -7.57414,-5.97424z" fill="#262626" stroke-width="0"/><path d="M413.37081,301.83529c-1.20678,-8.83683 -3.23229,-23.66899 -3.95969,-28.99544c-0.51304,-3.75681 2.68196,-8.87668 5.98507,-9.32776c5.08407,-0.69429 20.19138,-2.75738 29.48689,-4.0268c4.4853,-0.61252 8.11875,2.63063 8.55703,5.84002c0.68461,5.01319 2.74383,20.09212 4.0268,29.48689c0.6307,4.61841 -3.0561,8.42716 -6.54363,8.90343c-5.31837,0.72629 -20.95251,2.86132 -29.97834,4.09391c-3.95014,0.53944 -7.01713,-1.89548 -7.57414,-5.97424z" fill="#262626" stroke-width="0"/><path d="M463.12994,295.04008c-1.20678,-8.83683 -3.23229,-23.66899 -3.95969,-28.99544c-0.51304,-3.75681 2.68196,-8.87668 5.98507,-9.32776c5.08407,-0.69429 20.19138,-2.75738 29.48689,-4.0268c4.4853,-0.61252 8.11875,2.63063 8.55703,5.84002c0.68461,5.01319 2.74383,20.09212 4.0268,29.48689c0.6307,4.61841 -3.0561,8.42716 -6.54363,8.90343c-5.31837,0.72629 -20.95251,2.86132 -29.97834,4.09391c-3.95014,0.53944 -7.01713,-1.89548 -7.57414,-5.97424z" fill="#262626" stroke-width="0"/><path d="M-32.04893,412.77497c-1.20678,-8.83683 -3.23229,-23.66899 -3.95969,-28.99544c-0.51304,-3.75681 2.68196,-8.87668 5.98507,-9.32776c5.08407,-0.69429 20.19138,-2.75738 29.48689,-4.0268c4.4853,-0.61252 8.11875,2.63063 8.55703,5.84002c0.68461,5.01319 2.74383,20.09212 4.0268,29.48689c0.6307,4.61841 -3.0561,8.42716 -6.54363,8.90343c-5.31837,0.72629 -20.95251,2.86132 -29.97834,4.09391c-3.95014,0.53944 -7.01713,-1.89548 -7.57414,-5.97424z" fill="#262626" stroke-width="0"/><path d="M17.71021,405.97976c-1.20678,-8.83683 -3.23229,-23.66899 -3.95969,-28.99544c-0.51304,-3.75681 2.68196,-8.87668 5.98507,-9.32776c5.08407,-0.69429 20.19138,-2.75738 29.48689,-4.0268c4.4853,-0.61252 8.11875,2.63063 8.55703,5.84002c0.68461,5.01319 2.74383,20.09212 4.0268,29.48689c0.6307,4.61841 -3.0561,8.42716 -6.54363,8.90343c-5.31837,0.72629 -20.95251,2.86132 -29.97834,4.09391c-3.95014,0.53944 -7.01713,-1.89548 -7.57414,-5.97424z" fill="#262626" stroke-width="0"/><path d="M68.16754,399.71494c-1.20678,-8.83683 -3.23229,-23.66899 -3.95969,-28.99544c-0.51304,-3.75681 2.68196,-8.87668 5.98507,-9.32776c5.08407,-0.69429 20.19138,-2.75738 29.48689,-4.0268c4.4853,-0.61252 8.11875,2.63063 8.55703,5.84002c0.68461,5.01319 2.74383,20.09212 4.0268,29.48689c0.6307,4.61841 -3.0561,8.42716 -6.54363,8.90343c-5.31837,0.72629 -20.95251,2.86132 -29.97834,4.09391c-3.95014,0.53944 -7.01713,-1.89548 -7.57414,-5.97424z" fill="#262626" stroke-width="0"/><path d="M117.92667,392.91974c-1.20678,-8.83683 -3.23229,-23.66899 -3.95969,-28.99544c-0.51304,-3.75681 2.68196,-8.87668 5.98507,-9.32776c5.08407,-0.69429 20.19138,-2.75738 29.48689,-4.0268c4.4853,-0.61252 8.11875,2.63063 8.55703,5.84002c0.68461,5.01319 2.74383,20.09212 4.0268,29.48689c0.6307,4.61841 -3.0561,8.42716 -6.54363,8.90343c-5.31837,0.72629 -20.95251,2.86132 -29.97834,4.09391c-3.95014,0.53944 -7.01713,-1.89548 -7.57414,-5.97424z" fill="#262626" stroke-width="0"/><path d="M169.61262,386.48714c-1.20678,-8.83683 -3.23229,-23.66899 -3.95969,-28.99544c-0.51304,-3.75681 2.68196,-8.87668 5.98507,-9.32776c5.08407,-0.69429 20.19138,-2.75738 29.48689,-4.0268c4.4853,-0.61252 8.11875,2.63063 8.55703,5.84002c0.68461,5.01319 2.74383,20.09212 4.0268,29.48689c0.6307,4.61841 -3.0561,8.42716 -6.54363,8.90343c-5.31837,0.72629 -20.95251,2.86132 -29.97834,4.09391c-3.95014,0.53944 -7.01713,-1.89548 -7.57414,-5.97424z" fill="#262626" stroke-width="0"/><path d="M219.37175,379.69193c-1.20678,-8.83683 -3.23229,-23.66899 -3.95969,-28.99544c-0.51304,-3.75681 2.68196,-8.87668 5.98507,-9.32776c5.08407,-0.69429 20.19138,-2.75738 29.48689,-4.0268c4.4853,-0.61252 8.11875,2.63063 8.55703,5.84002c0.68461,5.01319 2.74383,20.09212 4.0268,29.48689c0.6307,4.61841 -3.0561,8.42716 -6.54363,8.90343c-5.31837,0.72629 -20.95251,2.86132 -29.97834,4.09391c-3.95014,0.53944 -7.01713,-1.89548 -7.57414,-5.97424z" fill="#262626" stroke-width="0"/><path d="M269.82908,373.42712c-1.20678,-8.83683 -3.23229,-23.66899 -3.95969,-28.99544c-0.51304,-3.75681 2.68196,-8.87668 5.98507,-9.32776c5.08407,-0.69429 20.19138,-2.75738 29.48689,-4.0268c4.4853,-0.61252 8.11875,2.63063 8.55703,5.84002c0.68461,5.01319 2.74383,20.09212 4.0268,29.48689c0.6307,4.61841 -3.0561,8.42716 -6.54363,8.90343c-5.31837,0.72629 -20.95251,2.86132 -29.97834,4.09391c-3.95014,0.53944 -7.01713,-1.89548 -7.57414,-5.97424z" fill="#262626" stroke-width="0"/><path d="M319.58821,366.6319c-1.20678,-8.83683 -3.23229,-23.66899 -3.95969,-28.99544c-0.51304,-3.75681 2.68196,-8.87668 5.98507,-9.32776c5.08407,-0.69429 20.19138,-2.75738 29.48689,-4.0268c4.4853,-0.61252 8.11875,2.63063 8.55703,5.84002c0.68461,5.01319 2.74383,20.09212 4.0268,29.48689c0.6307,4.61841 -3.0561,8.42716 -6.54363,8.90343c-5.31837,0.72629 -20.95251,2.86132 -29.97834,4.09391c-3.95014,0.53944 -7.01713,-1.89548 -7.57414,-5.97424z" fill="#262626" stroke-width="0"/><path d="M370.65985,360.2832c-1.20678,-8.83683 -3.23229,-23.66899 -3.95969,-28.99544c-0.51304,-3.75681 2.68196,-8.87668 5.98507,-9.32776c5.08407,-0.69429 20.19138,-2.75738 29.48689,-4.0268c4.4853,-0.61252 8.11875,2.63063 8.55703,5.84002c0.68461,5.01319 2.74383,20.09212 4.0268,29.48689c0.6307,4.61841 -3.0561,8.42716 -6.54363,8.90343c-5.31837,0.72629 -20.95251,2.86132 -29.97834,4.09391c-3.95014,0.53944 -7.01713,-1.89548 -7.57414,-5.97424z" fill="#262626" stroke-width="0"/><path d="M191.42483,174.21182c-1.13631,-9.20407 -3.04353,-24.65261 -3.72845,-30.20041c-0.48308,-3.91294 2.90746,-9.19339 6.34782,-9.61812c5.29535,-0.65375 21.03046,-2.59635 30.71227,-3.79164c4.67169,-0.57675 8.40605,2.84394 8.81873,6.18667c0.64463,5.22151 2.58359,20.92708 3.79164,30.71227c0.59387,4.81035 -3.29044,8.721 -6.92291,9.16945c-5.53938,0.68387 -21.82322,2.69423 -31.22416,3.85484c-4.11429,0.50794 -7.27048,-2.06482 -7.79496,-6.31307z" fill="#0053b1" stroke-width="0"/><path d="M194.09095,171.84466c-0.99256,-8.03971 -2.65851,-21.53389 -3.25677,-26.37986c-0.42197,-3.41793 2.53963,-8.03037 5.5448,-8.40138c4.62543,-0.57104 18.37001,-2.2679 26.82699,-3.31198c4.08071,-0.50379 7.34264,2.48416 7.70312,5.40403c0.56308,4.56097 2.25675,18.2797 3.31198,26.82699c0.51874,4.20179 -2.87416,7.61776 -6.04713,8.00948c-4.83861,0.59736 -19.06247,2.35339 -27.27409,3.36717c-3.59382,0.44368 -6.35072,-1.80361 -6.80884,-5.51443z" fill="#0066da" stroke-width="0"/><path d="M198.16058,161.60557l-0.74791,-6.05811l28.12701,-3.47247l0.74791,6.05811z" fill="#adadad" stroke-width="0"/><path d="M218.74056,143.00744l10.45717,9.04896l-3.71242,4.29011l-10.45717,-9.04896z" fill="#adadad" stroke-width="0"/><path d="M224.11136,152.80712l4.23689,-1.5259c0,0 0.59906,0.33468 0.76005,0.64794c0.16098,0.31326 0.21883,1.10518 0.24569,1.30925c0.12779,0.97056 0.57231,4.34665 0.57231,4.34665l-5.0975,0.67115z" fill="#adadad" stroke-width="0"/><path d="M217.44318,165.78738l7.94242,-11.32052l4.64434,3.25841l-7.94242,11.32053z" data-paper-data="{&quot;index&quot;:null}" fill="#adadad" stroke-width="0"/><path d="M197.25672,177.10168c0,0 -1.97757,-0.4922 -2.73775,-3.9633c-1.77485,-8.10418 -3.3329,-24.21893 -3.60521,-29.2446c-0.198,-3.65364 4.16502,-6.98348 4.16502,-6.98348v0c0,0 3.38079,20.89994 5.84841,27.98414c1.86643,5.35824 7.66381,10.8079 7.66381,10.8079z" fill="#0060ce" stroke-width="0"/><path d="M196.91294,160.25595l-0.74791,-6.05811l28.12701,-3.47247l0.74791,6.05811z" fill="#ffffff" stroke-width="0"/><path d="M217.49291,141.65787l10.45717,9.04896l-3.71242,4.29011l-10.45717,-9.04896z" fill="#ffffff" stroke-width="0"/><path d="M222.86372,151.4575l4.23689,-1.5259c0,0 0.59906,0.33468 0.76005,0.64794c0.16098,0.31326 0.21883,1.10518 0.24569,1.30925c0.12779,0.97056 0.57231,4.34665 0.57231,4.34665l-5.0975,0.67115z" fill="#ffffff" stroke-width="0"/><path d="M216.19554,164.43777l7.94242,-11.32052l4.64434,3.25841l-7.94242,11.32053z" data-paper-data="{&quot;index&quot;:null}" fill="#ffffff" stroke-width="0"/><path d="M421.11718,354.01839c-1.20678,-8.83683 -3.23229,-23.66899 -3.95969,-28.99544c-0.51304,-3.75681 2.68196,-8.87668 5.98507,-9.32776c5.08407,-0.69429 20.19138,-2.75738 29.48689,-4.0268c4.4853,-0.61252 8.11875,2.63063 8.55703,5.84002c0.68461,5.01319 2.74383,20.09212 4.0268,29.48689c0.6307,4.61841 -3.0561,8.42716 -6.54363,8.90343c-5.31837,0.72629 -20.95251,2.86132 -29.97834,4.09391c-3.95014,0.53944 -7.01713,-1.89548 -7.57414,-5.97424z" fill="#262626" stroke-width="0"/><path d="M470.87631,347.22318c-1.20678,-8.83683 -3.23229,-23.66899 -3.95969,-28.99544c-0.51304,-3.75681 2.68196,-8.87668 5.98507,-9.32776c5.08407,-0.69429 20.19138,-2.75738 29.48689,-4.0268c4.4853,-0.61252 8.11875,2.63063 8.55703,5.84002c0.68461,5.01319 2.74383,20.09212 4.0268,29.48689c0.6307,4.61841 -3.0561,8.42716 -6.54363,8.90343c-5.31837,0.72629 -20.95251,2.86132 -29.97834,4.09391c-3.95014,0.53944 -7.01713,-1.89548 -7.57414,-5.97424z" fill="#262626" stroke-width="0"/><path d="M298.65276,232.91427c1.1363,9.20407 3.04353,24.65261 3.72845,30.20041c0.48308,3.91294 -2.90746,9.19339 -6.34783,9.61813c-5.29534,0.65374 -21.03046,2.59635 -30.71226,3.79164c-4.67169,0.57675 -8.40605,-2.84393 -8.81873,-6.18667c-0.64463,-5.22151 -2.58359,-20.92709 -3.79164,-30.71227c-0.59387,-4.81035 3.29044,-8.721 6.92291,-9.16945c5.53938,-0.68388 21.82322,-2.69423 31.22416,-3.85484c4.11429,-0.50794 7.27048,2.06482 7.79495,6.31307z" data-paper-data="{&quot;index&quot;:null}" fill="#0053b1" stroke-width="0"/><path d="M295.98664,235.28144c0.99256,8.03971 2.6585,21.53389 3.25678,26.37986c0.42197,3.41794 -2.53964,8.03037 -5.54481,8.40138c-4.62543,0.57104 -18.37001,2.26791 -26.82699,3.31197c-4.08071,0.50379 -7.34265,-2.48416 -7.70312,-5.40402c-0.56309,-4.56097 -2.25676,-18.2797 -3.31198,-26.82699c-0.51874,-4.20179 2.87417,-7.61776 6.04713,-8.00949c4.83861,-0.59736 19.06246,-2.35339 27.27409,-3.36717c3.59383,-0.44368 6.35072,1.80361 6.80885,5.51443z" data-paper-data="{&quot;index&quot;:null}" fill="#0066da" stroke-width="0"/><path d="M291.91701,245.5205l0.74791,6.05811l-28.12701,3.47247l-0.74791,-6.05811z" data-paper-data="{&quot;index&quot;:null}" fill="#adadad" stroke-width="0"/><path d="M271.33703,264.11852l-10.45718,-9.04897l3.71242,-4.29011l10.45717,9.04896z" data-paper-data="{&quot;index&quot;:null}" fill="#adadad" stroke-width="0"/><path d="M265.96622,254.31895l-4.23689,1.52589c0,0 -0.59906,-0.33468 -0.76005,-0.64794c-0.16098,-0.31326 -0.21883,-1.10519 -0.2457,-1.30926c-0.12778,-0.97056 -0.57231,-4.34664 -0.57231,-4.34664l5.0975,-0.67115z" data-paper-data="{&quot;index&quot;:null}" fill="#adadad" stroke-width="0"/><path d="M272.63441,241.33867l-7.94243,11.32052l-4.64434,-3.25841l7.94241,-11.32053z" data-paper-data="{&quot;index&quot;:null}" fill="#adadad" stroke-width="0"/><path d="M292.82087,230.02441c0,0 1.97756,0.49221 2.73775,3.9633c1.77485,8.10418 3.3329,24.21893 3.60521,29.24461c0.198,3.65364 -4.16502,6.98347 -4.16502,6.98347v0c0,0 -3.38079,-20.89995 -5.84841,-27.98414c-1.86643,-5.35824 -7.66381,-10.80791 -7.66381,-10.80791z" data-paper-data="{&quot;index&quot;:null}" fill="#0060ce" stroke-width="0"/><path d="M293.16465,246.8701l0.74791,6.05811l-28.12701,3.47247l-0.74791,-6.05811z" data-paper-data="{&quot;index&quot;:null}" fill="#ffffff" stroke-width="0"/><path d="M272.58467,265.46817l-10.45717,-9.04896l3.71242,-4.29011l10.45718,9.04896z" data-paper-data="{&quot;index&quot;:null}" fill="#ffffff" stroke-width="0"/><path d="M267.21387,255.66855l-4.23688,1.52589c0,0 -0.59906,-0.33468 -0.76006,-0.64794c-0.16098,-0.31326 -0.21883,-1.10518 -0.24569,-1.30925c-0.12778,-0.97056 -0.57232,-4.34665 -0.57232,-4.34665l5.0975,-0.67115z" data-paper-data="{&quot;index&quot;:null}" fill="#ffffff" stroke-width="0"/><path d="M273.88205,242.6883l-7.94242,11.32052l-4.64434,-3.25841l7.94242,-11.32053z" data-paper-data="{&quot;index&quot;:null}" fill="#ffffff" stroke-width="0"/><path d="M322.18756,109.67701c-9.20407,1.1363 -24.65262,3.04353 -30.20042,3.72845c-3.91294,0.48308 -9.19339,-2.90746 -9.61812,-6.34783c-0.65375,-5.29534 -2.59635,-21.03046 -3.79164,-30.71226c-0.57675,-4.67169 2.84394,-8.40605 6.18667,-8.81873c5.22151,-0.64463 20.92709,-2.5836 30.71227,-3.79164c4.81035,-0.59387 8.721,3.29044 9.16945,6.92291c0.68387,5.53938 2.69422,21.82322 3.85483,31.22416c0.50793,4.11429 -2.06482,7.27048 -6.31306,7.79496z" data-paper-data="{&quot;index&quot;:null}" fill="#0053b1" stroke-width="0"/><path d="M319.8204,107.01088c-8.03971,0.99255 -21.53389,2.6585 -26.37986,3.25678c-3.41793,0.42196 -8.03037,-2.53964 -8.40138,-5.54481c-0.57104,-4.62543 -2.26791,-18.37001 -3.31197,-26.82699c-0.50379,-4.08071 2.48416,-7.34265 5.40402,-7.70312c4.56097,-0.56308 18.2797,-2.25675 26.82699,-3.31197c4.20179,-0.51874 7.61776,2.87417 8.00948,6.04713c0.59736,4.8386 2.35339,19.06246 3.36717,27.27409c0.44368,3.59382 -1.80361,6.35072 -5.51443,6.80884z" data-paper-data="{&quot;index&quot;:null}" fill="#0066da" stroke-width="0"/><path d="M309.58133,102.94124l-6.05811,0.74791l-3.47247,-28.12701l6.05811,-0.74792z" data-paper-data="{&quot;index&quot;:null}" fill="#adadad" stroke-width="0"/><path d="M290.98324,82.36127l9.04897,-10.45718l4.29011,3.71242l-9.04896,10.45717z" data-paper-data="{&quot;index&quot;:null}" fill="#adadad" stroke-width="0"/><path d="M300.78288,76.99046l-1.52589,-4.23689c0,0 0.33468,-0.59905 0.64794,-0.76005c0.31326,-0.16098 1.10519,-0.21884 1.30926,-0.2457c0.97056,-0.12779 4.34664,-0.57231 4.34664,-0.57231l0.67116,5.0975z" data-paper-data="{&quot;index&quot;:null}" fill="#adadad" stroke-width="0"/><path d="M313.76315,83.65864l-11.32051,-7.94242l3.25841,-4.64434l11.32053,7.94242z" data-paper-data="{&quot;index&quot;:null}" fill="#adadad" stroke-width="0"/><path d="M325.07743,103.8451c0,0 -0.49221,1.97757 -3.9633,2.73775c-8.10418,1.77485 -24.21893,3.3329 -29.24461,3.60521c-3.65364,0.198 -6.98347,-4.16502 -6.98347,-4.16502v0c0,0 20.89994,-3.38079 27.98414,-5.84841c5.35824,-1.86643 10.80791,-7.66381 10.80791,-7.66381z" data-paper-data="{&quot;index&quot;:null}" fill="#0060ce" stroke-width="0"/><path d="M308.23172,104.1889l-6.05811,0.74791l-3.47247,-28.12701l6.05811,-0.74791z" data-paper-data="{&quot;index&quot;:null}" fill="#ffffff" stroke-width="0"/><path d="M289.63363,83.60889l9.04896,-10.45717l4.29011,3.71242l-9.04896,10.45718z" data-paper-data="{&quot;index&quot;:null}" fill="#ffffff" stroke-width="0"/><path d="M299.43326,78.23808l-1.52589,-4.23688c0,0 0.33468,-0.59906 0.64794,-0.76006c0.31326,-0.16098 1.10518,-0.21883 1.30925,-0.24569c0.97056,-0.12779 4.34665,-0.57232 4.34665,-0.57232l0.67115,5.0975z" data-paper-data="{&quot;index&quot;:null}" fill="#ffffff" stroke-width="0"/><path d="M312.41354,84.90628l-11.32052,-7.94242l3.25842,-4.64434l11.32053,7.94242z" data-paper-data="{&quot;index&quot;:null}" fill="#ffffff" stroke-width="0"/><path d="M143.18756,292.67699c-9.20407,1.1363 -24.65261,3.04353 -30.20041,3.72845c-3.91294,0.48308 -9.19339,-2.90746 -9.61813,-6.34783c-0.65375,-5.29534 -2.59635,-21.03046 -3.79163,-30.71226c-0.57675,-4.6717 2.84393,-8.40605 6.18667,-8.81873c5.22151,-0.64463 20.92709,-2.5836 30.71227,-3.79164c4.81034,-0.59387 8.721,3.29044 9.16945,6.92292c0.68388,5.53937 2.69422,21.82322 3.85483,31.22416c0.50793,4.11429 -2.06482,7.27048 -6.31306,7.79496z" data-paper-data="{&quot;index&quot;:null}" fill="#0053b1" stroke-width="0"/><path d="M140.8204,290.01088c-8.03971,0.99256 -21.53389,2.65851 -26.37986,3.25678c-3.41793,0.42197 -8.03037,-2.53963 -8.40138,-5.5448c-0.57104,-4.62543 -2.2679,-18.37001 -3.31197,-26.82699c-0.50379,-4.08071 2.48416,-7.34264 5.40402,-7.70312c4.56097,-0.56309 18.2797,-2.25675 26.82699,-3.31197c4.20179,-0.51874 7.61776,2.87416 8.00949,6.04713c0.59736,4.83861 2.35339,19.06247 3.36717,27.2741c0.44368,3.59382 -1.80361,6.35072 -5.51443,6.80884z" data-paper-data="{&quot;index&quot;:null}" fill="#0066da" stroke-width="0"/><path d="M130.58134,285.94124l-6.05811,0.74791l-3.47247,-28.12701l6.05811,-0.74791z" data-paper-data="{&quot;index&quot;:null}" fill="#adadad" stroke-width="0"/><path d="M111.98325,265.36127l9.04897,-10.45718l4.29011,3.71242l-9.04896,10.45717z" data-paper-data="{&quot;index&quot;:null}" fill="#adadad" stroke-width="0"/><path d="M121.78288,259.99046l-1.52589,-4.23689c0,0 0.33468,-0.59906 0.64794,-0.76005c0.31326,-0.16098 1.10519,-0.21883 1.30926,-0.24569c0.97056,-0.12779 4.34665,-0.57231 4.34665,-0.57231l0.67115,5.0975z" data-paper-data="{&quot;index&quot;:null}" fill="#adadad" stroke-width="0"/><path d="M134.76315,266.65864l-11.32051,-7.94243l3.25841,-4.64434l11.32053,7.94241z" data-paper-data="{&quot;index&quot;:null}" fill="#adadad" stroke-width="0"/><path d="M146.07743,286.84506c0,0 -0.49221,1.97756 -3.9633,2.73775c-8.10418,1.77485 -24.21893,3.3329 -29.2446,3.60522c-3.65364,0.198 -6.98347,-4.16502 -6.98347,-4.16502v0c0,0 20.89994,-3.38079 27.98414,-5.84841c5.35824,-1.86643 10.80791,-7.66381 10.80791,-7.66381z" data-paper-data="{&quot;index&quot;:null}" fill="#0060ce" stroke-width="0"/><path d="M129.23172,287.18888l-6.05811,0.74792l-3.47247,-28.12701l6.05811,-0.74792z" data-paper-data="{&quot;index&quot;:null}" fill="#ffffff" stroke-width="0"/><path d="M110.63363,266.60889l9.04896,-10.45717l4.29011,3.71242l-9.04896,10.45718z" data-paper-data="{&quot;index&quot;:null}" fill="#ffffff" stroke-width="0"/><path d="M120.43327,261.23807l-1.52589,-4.23688c0,0 0.33468,-0.59906 0.64794,-0.76006c0.31326,-0.16098 1.10518,-0.21883 1.30925,-0.24569c0.97056,-0.12778 4.34665,-0.57231 4.34665,-0.57231l0.67115,5.0975z" data-paper-data="{&quot;index&quot;:null}" fill="#ffffff" stroke-width="0"/><path d="M91.31404,188.29035c-1.21922,-8.83926 -3.26563,-23.67554 -4.00053,-29.00346c-0.51833,-3.75786 2.67127,-8.88439 5.97527,-9.34012c5.08548,-0.70146 20.19697,-2.78581 29.49505,-4.06832c4.48654,-0.61884 8.12602,2.62092 8.56882,5.83119c0.69167,5.01458 2.77212,20.09768 4.06833,29.49505c0.6372,4.61969 -3.04616,8.43515 -6.53466,8.91633c-5.31984,0.73378 -20.9583,2.89084 -29.98664,4.13614c-3.95122,0.54501 -7.02291,-1.88692 -7.58566,-5.9668z" fill="#2f2f2f" stroke-width="0"/><path d="M93.84659,185.97652c-1.06499,-7.72106 -2.85251,-20.68044 -3.49443,-25.33435c-0.45276,-3.28248 2.3333,-7.76046 5.21938,-8.15854c4.44213,-0.61272 17.64194,-2.4334 25.76376,-3.55366c3.91897,-0.54055 7.09803,2.28935 7.48481,5.09352c0.60417,4.3802 2.42144,17.5552 3.55367,25.76376c0.5566,4.03526 -2.66081,7.36806 -5.70798,7.78836c-4.64686,0.64095 -18.30697,2.52513 -26.19314,3.61289c-3.45138,0.47606 -6.13447,-1.64821 -6.62602,-5.21197z" fill="#343434" stroke-width="0"/><path d="M96.76142,183.31341c-0.88746,-6.43404 -2.37703,-17.23325 -2.91196,-21.11141c-0.37729,-2.73532 1.94438,-6.46687 4.34938,-6.7986c3.70166,-0.51058 14.70123,-2.02777 21.46922,-2.9613c3.26572,-0.45045 5.91487,1.90774 6.23719,4.24449c0.50347,3.65007 2.01782,14.62896 2.96131,21.46922c0.46382,3.36263 -2.21728,6.13989 -4.75653,6.49014c-3.87227,0.53411 -15.25539,2.10422 -21.82702,3.01066c-2.87608,0.3967 -5.11193,-1.37348 -5.52155,-4.3432z" fill="#3d3d3d" stroke-width="0"/><path d="M96.1645,163.14091c-0.08014,-0.58102 -0.15994,-1.1596 -0.2154,-1.56164c-0.13522,-0.98037 0.65348,-2.87501 1.3799,-2.9752c0.58262,-0.08036 1.72308,-0.23766 2.73288,-0.37695c1.04616,-0.1443 2.0942,0.76118 2.19439,1.4876c0.05308,0.38482 0.24342,1.76474 0.40388,2.92809c0.13114,0.95075 -0.92548,1.91793 -1.70974,2.02611c-0.64366,0.08878 -1.90558,0.26284 -2.92808,0.40388c-0.86687,0.11957 -1.7103,-0.86236 -1.85782,-1.93186z" fill="#2f2f2f" stroke-width="0"/><path d="M117.47109,160.05333c-0.08014,-0.58102 -0.15995,-1.1596 -0.21541,-1.56166c-0.13522,-0.98038 0.6535,-2.87501 1.3799,-2.9752c0.58261,-0.08036 1.72308,-0.23767 2.73287,-0.37696c1.04616,-0.1443 2.0942,0.7612 2.19439,1.4876c0.05308,0.38483 0.24342,1.76475 0.40388,2.92809c0.13114,0.95076 -0.92547,1.91793 -1.70974,2.02611c-0.64366,0.08878 -1.90558,0.26285 -2.92808,0.40388c-0.86687,0.11957 -1.71032,-0.86236 -1.85784,-1.93186z" fill="#2f2f2f" stroke-width="0"/><path d="M98.40153,184.76374c-0.08014,-0.58102 -0.15995,-1.1596 -0.21541,-1.56166c-0.13522,-0.98038 0.6535,-2.87501 1.3799,-2.9752c0.58262,-0.08036 1.72308,-0.23767 2.73289,-0.37696c1.04615,-0.1443 2.0942,0.7612 2.19439,1.4876c0.05308,0.38483 0.24342,1.76475 0.40388,2.92809c0.13114,0.95076 -0.92548,1.91793 -1.70974,2.02611c-0.64368,0.08879 -1.90561,0.26284 -2.92809,0.40387c-0.86687,0.11957 -1.7103,-0.86235 -1.85782,-1.93186z" fill="#2f2f2f" stroke-width="0"/><path d="M247.78913,216.68702c-0.92663,-8.91405 -2.48193,-23.87583 -3.04046,-29.2488c-0.39394,-3.78965 2.98023,-8.82849 6.31219,-9.17485c5.12849,-0.53311 20.36781,-2.11727 29.74454,-3.09199c4.5245,-0.47033 8.06895,2.90421 8.40548,6.14161c0.52568,5.05699 2.10686,20.26767 3.09199,29.74454c0.48429,4.65877 -3.34146,8.36494 -6.85949,8.73064c-5.36482,0.55768 -21.13558,2.19708 -30.24029,3.14353c-3.98465,0.41421 -6.98628,-2.1303 -7.41398,-6.24468z" fill="#008793" stroke-width="0"/><path d="M250.40917,214.44949c-0.80941,-7.78637 -2.16795,-20.85536 -2.65582,-25.54864c-0.3441,-3.31024 2.60319,-7.71163 5.51368,-8.01418c4.47969,-0.46567 17.79117,-1.84942 25.98169,-2.70084c3.95213,-0.41083 7.04819,2.53681 7.34215,5.36466c0.45918,4.41724 1.84033,17.70371 2.70084,25.98169c0.42302,4.0694 -2.91874,7.30673 -5.99174,7.62618c-4.68615,0.48713 -18.46181,1.91913 -26.41471,2.74585c-3.48059,0.36181 -6.10246,-1.8608 -6.47605,-5.45469z" fill="#00c6d9" stroke-width="0"/><path d="M255.22624,219.80229c0,0 -3.7577,-0.72696 -4.4276,-4.09484c-1.56406,-7.86323 -2.76958,-23.46218 -2.93918,-28.32302c-0.12332,-3.53382 4.92892,-6.55959 4.92892,-6.55959c0,0 2.10284,20.146 4.35521,27.03661c1.70364,5.21182 7.48902,11.37049 7.48902,11.37049z" fill="#00a5b4" stroke-width="0"/><path d="M283.85091,197.21257c0.78776,7.57814 -4.71694,14.36002 -12.29505,15.14778c-7.57814,0.78776 -14.36002,-4.71694 -15.14778,-12.29505c-0.2837,-2.72919 1.01315,-5.84209 2.16464,-8.12193c2.04587,-4.0506 5.28148,-6.52179 10.13041,-7.02584c7.57814,-0.78776 14.36002,4.71694 15.14778,12.29505z" data-paper-data="{&quot;index&quot;:null}" fill="#ffffff" stroke-width="0"/><path d="M271.02097,207.21482c-4.73633,0.49235 -8.97502,-2.94808 -9.46737,-7.68441c-0.49235,-4.73633 2.94808,-8.97502 7.68441,-9.46737c4.73633,-0.49235 8.97502,2.94808 9.46737,7.68441c0.49235,4.73633 -2.94808,8.97502 -7.68441,9.46737z" data-paper-data="{&quot;index&quot;:null}" fill="#00c6d9" stroke-width="0"/><path d="M255.8089,200.56057l-0.00503,-6.51044l12.52433,-3.75913l0.68575,6.59684z" data-paper-data="{&quot;index&quot;:null}" fill="#00c6d9" stroke-width="0"/><path d="M265.77545,197.30163c0.37792,0.59822 0.02849,0.82384 -0.86481,0.62223c-2.77355,-0.62598 -8.62767,-1.94721 -9.95494,-2.24677c-0.52546,-0.11859 -0.92124,-0.68732 -0.75669,-1.41643c0.56442,-2.50079 1.85358,-8.2128 2.19918,-9.74404c0.16629,-0.73679 0.75277,-0.86722 1.17918,-0.19226c0.40325,0.63835 1.47071,2.05737 2.67355,3.66202c0.14057,0.18755 0.34214,0.47971 0.52837,0.4709c0.2507,-0.01185 0.69174,-0.03792 0.93251,0.18395c0.40191,0.37034 2.15721,1.95517 2.41412,2.79321c0.04668,0.15231 -0.69734,0.38628 -0.76797,0.7658c-0.07551,0.40574 0.02682,0.40099 0.08752,0.49708c1.42402,2.25417 1.57135,3.40342 2.32997,4.60427z" data-paper-data="{&quot;index&quot;:null}" fill="#ffffff" stroke-width="0"/><path d="M119.70812,181.67616c-0.08014,-0.58102 -0.15995,-1.1596 -0.2154,-1.56164c-0.13522,-0.98038 0.6535,-2.87501 1.3799,-2.9752c0.58261,-0.08036 1.72308,-0.23767 2.73289,-0.37696c1.04616,-0.1443 2.0942,0.76119 2.19439,1.48759c0.05308,0.38483 0.24341,1.76475 0.40388,2.92809c0.13114,0.95076 -0.92547,1.91793 -1.70974,2.02611c-0.64367,0.08879 -1.9056,0.26285 -2.92809,0.40388c-0.86687,0.11957 -1.71031,-0.86235 -1.85783,-1.93186z" fill="#2f2f2f" stroke-width="0"/><path d="M133.41354,267.90626l-11.32052,-7.94242l3.25841,-4.64434l11.32053,7.94242z" data-paper-data="{&quot;index&quot;:null}" fill="#ffffff" stroke-width="0"/><path d="M391.24111,148.29143c-1.34503,-9.23343 -3.60259,-24.73128 -4.41332,-30.29678c-0.57182,-3.92543 2.72285,-9.31144 6.17417,-9.81419c5.31225,-0.77383 21.09758,-3.07327 30.81027,-4.48811c4.6866,-0.68269 8.51806,2.67622 9.00655,6.02963c0.76304,5.23818 3.05816,20.99387 4.48811,30.81028c0.70295,4.82569 -3.11844,8.84467 -6.76249,9.3755c-5.55705,0.80949 -21.89287,3.18912 -31.32379,4.56292c-4.12743,0.60124 -7.35872,-1.91742 -7.97953,-6.17924z" fill="#ea9600" stroke-width="0"/><path d="M393.87102,145.85179c-1.17487,-8.06536 -3.14684,-21.60261 -3.85501,-26.46405c-0.49948,-3.42883 2.37837,-8.13349 5.39313,-8.57265c4.64021,-0.67593 18.42861,-2.68448 26.9126,-3.92034c4.09371,-0.59633 7.44046,2.33764 7.86716,5.26685c0.66651,4.57551 2.67129,18.33802 3.92034,26.9126c0.61403,4.21519 -2.72393,7.72577 -5.90698,8.18944c-4.85406,0.70709 -19.12329,2.78567 -27.36112,3.98567c-3.60527,0.52518 -6.4278,-1.67486 -6.97008,-5.39754z" fill="#ffde00" stroke-width="0"/><path d="M397.6943,150.9941c0,0 -2.52347,-0.37546 -3.36433,-3.85035c-1.96321,-8.11304 -3.88413,-24.28869 -4.26839,-29.33804c-0.27935,-3.67085 4.03634,-7.11609 4.03634,-7.11609v0c0,0 3.85947,20.94907 6.49715,28.02092c1.99503,5.34889 9.06939,11.07441 9.06939,11.07441z" fill="#ffc400" stroke-width="0"/><path d="M399.29414,143.49983l-0.96527,-6.62645l30.7657,-4.48163l0.96527,6.62645z" fill="#c7c7c7" stroke-width="0"/><path d="M398.32398,142.40413l-0.96527,-6.62644l30.7657,-4.48162l0.96527,6.62643z" fill="#ffffff" stroke-width="0"/><path d="M396.36371,125.21766l-0.96527,-6.62644l30.7657,-4.48162l0.96527,6.62644z" fill="#c7c7c7" stroke-width="0"/><path d="M395.39355,124.12196l-0.96528,-6.62645l30.76572,-4.48163l0.96527,6.62645z" fill="#ffffff" stroke-width="0"/><path d="M84.28736,244.91691c-9.23343,1.34503 -24.73128,3.60259 -30.29677,4.41331c-3.92542,0.57182 -9.31144,-2.72285 -9.8142,-6.17417c-0.77383,-5.31224 -3.07327,-21.09758 -4.48811,-30.81027c-0.68269,-4.6866 2.67622,-8.51806 6.02963,-9.00655c5.23818,-0.76304 20.99387,-3.05816 30.81028,-4.48811c4.82569,-0.70295 8.84467,3.11845 9.3755,6.76249c0.80949,5.55705 3.18912,21.89287 4.56292,31.32379c0.60124,4.12743 -1.91742,7.35871 -6.17924,7.97953z" fill="#ea9600" stroke-width="0"/><path d="M81.84773,242.28702c-8.06536,1.17487 -21.60261,3.14684 -26.46405,3.85501c-3.42883,0.49947 -8.1335,-2.37837 -8.57265,-5.39313c-0.67594,-4.64021 -2.68449,-18.42861 -3.92034,-26.9126c-0.59633,-4.09371 2.33765,-7.44047 5.26685,-7.86716c4.57551,-0.66651 18.33802,-2.67128 26.9126,-3.92034c4.21519,-0.61403 7.72577,2.72393 8.18944,5.90698c0.70709,4.85406 2.78567,19.12329 3.98567,27.36112c0.52518,3.60527 -1.67486,6.4278 -5.39754,6.97008z" fill="#ffde00" stroke-width="0"/><path d="M86.99004,238.46371c0,0 -0.37546,2.52347 -3.85035,3.36434c-8.11304,1.96321 -24.28869,3.88413 -29.33804,4.26838c-3.67085,0.27935 -7.11609,-4.03634 -7.11609,-4.03634v0c0,0 20.94907,-3.85948 28.02092,-6.49715c5.34889,-1.99503 11.07441,-9.06939 11.07441,-9.06939z" fill="#ffc400" stroke-width="0"/><path d="M79.49577,236.86389l-6.62645,0.96527l-4.48163,-30.7657l6.62645,-0.96527z" fill="#c7c7c7" stroke-width="0"/><path d="M78.40007,237.83405l-6.62644,0.96527l-4.48162,-30.7657l6.62643,-0.96527z" fill="#ffffff" stroke-width="0"/><path d="M61.21359,239.79432l-6.62643,0.96527l-4.48162,-30.7657l6.62644,-0.96527z" fill="#c7c7c7" stroke-width="0"/><path d="M60.11791,240.76448l-6.62645,0.96528l-4.48163,-30.76571l6.62645,-0.96527z" fill="#ffffff" stroke-width="0"/><path d="M241.31404,167.29035c-1.21922,-8.83926 -3.26563,-23.67554 -4.00052,-29.00346c-0.51833,-3.75786 2.67126,-8.88439 5.97527,-9.34012c5.08547,-0.70145 20.19697,-2.78582 29.49505,-4.06833c4.48654,-0.61884 8.12602,2.62092 8.56882,5.83119c0.69167,5.01457 2.77213,20.09767 4.06833,29.49505c0.63721,4.61969 -3.04616,8.43515 -6.53466,8.91633c-5.31984,0.73378 -20.95831,2.89083 -29.98664,4.13614c-3.95123,0.545 -7.02291,-1.88692 -7.58566,-5.9668z" fill="#2f2f2f" stroke-width="0"/><path d="M243.8466,164.97652c-1.06499,-7.72106 -2.85251,-20.68044 -3.49443,-25.33436c-0.45276,-3.28247 2.33331,-7.76045 5.21939,-8.15854c4.44212,-0.61271 17.64194,-2.4334 25.76376,-3.55366c3.91897,-0.54055 7.09803,2.28935 7.48481,5.09352c0.60417,4.3802 2.42144,17.5552 3.55366,25.76376c0.55659,4.03525 -2.66081,7.36806 -5.70798,7.78836c-4.64685,0.64095 -18.30696,2.52513 -26.19313,3.61289c-3.45137,0.47606 -6.13447,-1.64821 -6.62603,-5.21198z" fill="#343434" stroke-width="0"/><path d="M246.76142,162.31341c-0.88746,-6.43405 -2.37703,-17.23324 -2.91195,-21.11141c-0.37729,-2.73532 1.94438,-6.46687 4.34938,-6.79859c3.70166,-0.51058 14.70122,-2.02778 21.46922,-2.96131c3.26572,-0.45045 5.91487,1.90774 6.23718,4.24449c0.50346,3.65007 2.01781,14.62896 2.96131,21.46922c0.46382,3.36263 -2.21728,6.13989 -4.75653,6.49013c-3.87227,0.53411 -15.25539,2.10422 -21.82702,3.01066c-2.87608,0.3967 -5.11193,-1.37348 -5.52155,-4.3432z" fill="#3d3d3d" stroke-width="0"/><path d="M246.1645,142.14091c-0.08014,-0.58102 -0.15995,-1.1596 -0.2154,-1.56164c-0.13522,-0.98037 0.65349,-2.87501 1.3799,-2.97521c0.58261,-0.08036 1.72309,-0.23767 2.73288,-0.37695c1.04616,-0.1443 2.09419,0.76119 2.19439,1.4876c0.05308,0.38482 0.24342,1.76475 0.40388,2.92809c0.13114,0.95076 -0.92548,1.91793 -1.70974,2.02611c-0.64366,0.08878 -1.90559,0.26284 -2.92809,0.40388c-0.86687,0.11957 -1.7103,-0.86236 -1.85782,-1.93186z" fill="#2f2f2f" stroke-width="0"/><path d="M267.47108,139.05333c-0.08014,-0.58102 -0.15995,-1.1596 -0.2154,-1.56165c-0.13523,-0.98038 0.6535,-2.87501 1.3799,-2.97521c0.58261,-0.08036 1.72309,-0.23767 2.73288,-0.37695c1.04616,-0.1443 2.0942,0.7612 2.19439,1.4876c0.05308,0.38483 0.24342,1.76475 0.40388,2.92809c0.13114,0.95077 -0.92547,1.91793 -1.70974,2.02611c-0.64366,0.08878 -1.90559,0.26284 -2.92809,0.40388c-0.86687,0.11957 -1.71031,-0.86235 -1.85783,-1.93186z" fill="#2f2f2f" stroke-width="0"/><path d="M248.40153,163.76374c-0.08014,-0.58102 -0.15995,-1.1596 -0.2154,-1.56165c-0.13523,-0.98038 0.6535,-2.87501 1.3799,-2.97521c0.58261,-0.08036 1.72309,-0.23767 2.73289,-0.37695c1.04615,-0.1443 2.0942,0.7612 2.19439,1.4876c0.05308,0.38483 0.24342,1.76475 0.40388,2.92809c0.13114,0.95077 -0.92548,1.91793 -1.70974,2.02611c-0.64368,0.08878 -1.9056,0.26284 -2.92809,0.40388c-0.86687,0.11957 -1.7103,-0.86236 -1.85782,-1.93186z" fill="#2f2f2f" stroke-width="0"/><path d="M269.70811,160.67616c-0.08014,-0.58102 -0.15995,-1.1596 -0.2154,-1.56164c-0.13523,-0.98038 0.6535,-2.87501 1.3799,-2.97521c0.58261,-0.08036 1.72309,-0.23767 2.73289,-0.37695c1.04616,-0.1443 2.0942,0.7612 2.19439,1.4876c0.05308,0.38483 0.24342,1.76475 0.40388,2.92809c0.13114,0.95077 -0.92547,1.91793 -1.70974,2.02611c-0.64368,0.08878 -1.9056,0.26284 -2.92809,0.40388c-0.86687,0.11957 -1.71031,-0.86235 -1.85783,-1.93186z" fill="#2f2f2f" stroke-width="0"/><path d="M212.31404,327.29035c-1.21922,-8.83925 -3.26563,-23.67554 -4.00053,-29.00346c-0.51833,-3.75786 2.67127,-8.88439 5.97527,-9.34012c5.08548,-0.70146 20.19697,-2.78581 29.49505,-4.06832c4.48655,-0.61884 8.12602,2.62092 8.56882,5.83119c0.69168,5.01457 2.77212,20.09767 4.06833,29.49505c0.6372,4.61969 -3.04616,8.43515 -6.53466,8.91632c-5.31984,0.73378 -20.9583,2.89084 -29.98664,4.13614c-3.95122,0.545 -7.02292,-1.88692 -7.58567,-5.9668z" fill="#2f2f2f" stroke-width="0"/><path d="M214.84659,324.97652c-1.06499,-7.72106 -2.85251,-20.68044 -3.49443,-25.33435c-0.45276,-3.28247 2.3333,-7.76045 5.21938,-8.15854c4.44213,-0.61271 17.64194,-2.4334 25.76376,-3.55367c3.91897,-0.54055 7.09803,2.28935 7.48481,5.09352c0.60417,4.38021 2.42144,17.5552 3.55367,25.76376c0.55659,4.03526 -2.6608,7.36806 -5.70798,7.78836c-4.64685,0.64095 -18.30697,2.52513 -26.19314,3.61289c-3.45137,0.47605 -6.13446,-1.64821 -6.62602,-5.21198z" fill="#343434" stroke-width="0"/><path d="M217.76143,322.31341c-0.88746,-6.43405 -2.37703,-17.23325 -2.91196,-21.11141c-0.37729,-2.73532 1.94438,-6.46687 4.34938,-6.7986c3.70166,-0.51058 14.70122,-2.02777 21.46922,-2.9613c3.26573,-0.45045 5.91487,1.90774 6.23719,4.24449c0.50347,3.65007 2.01781,14.62896 2.96131,21.46922c0.46382,3.36263 -2.21728,6.13989 -4.75653,6.49014c-3.87226,0.53411 -15.25539,2.10422 -21.82702,3.01066c-2.87608,0.3967 -5.11193,-1.37348 -5.52155,-4.3432z" fill="#3d3d3d" stroke-width="0"/><path d="M217.1645,302.14091c-0.08014,-0.58102 -0.15995,-1.1596 -0.2154,-1.56164c-0.13522,-0.98037 0.65349,-2.87501 1.3799,-2.9752c0.58262,-0.08036 1.72308,-0.23766 2.73288,-0.37695c1.04616,-0.1443 2.09419,0.76119 2.19439,1.4876c0.05308,0.38482 0.24341,1.76474 0.40388,2.92809c0.13114,0.95075 -0.92548,1.91793 -1.70973,2.02611c-0.64366,0.08878 -1.90559,0.26284 -2.92809,0.40388c-0.86687,0.11957 -1.7103,-0.86235 -1.85782,-1.93186z" fill="#2f2f2f" stroke-width="0"/><path d="M238.47109,299.05333c-0.08014,-0.58102 -0.15995,-1.1596 -0.21541,-1.56165c-0.13522,-0.98038 0.6535,-2.87501 1.3799,-2.9752c0.58262,-0.08036 1.72308,-0.23767 2.73287,-0.37696c1.04617,-0.1443 2.0942,0.7612 2.19439,1.4876c0.05308,0.38483 0.24342,1.76474 0.40388,2.92809c0.13114,0.95076 -0.92547,1.91793 -1.70973,2.02611c-0.64366,0.08878 -1.90559,0.26284 -2.92808,0.40388c-0.86687,0.11957 -1.71032,-0.86235 -1.85784,-1.93186z" fill="#2f2f2f" stroke-width="0"/><path d="M219.40153,323.76374c-0.08014,-0.58102 -0.15995,-1.1596 -0.21541,-1.56166c-0.13522,-0.98038 0.6535,-2.87501 1.3799,-2.9752c0.58262,-0.08036 1.72309,-0.23767 2.73289,-0.37696c1.04615,-0.1443 2.0942,0.7612 2.19439,1.4876c0.05308,0.38483 0.24341,1.76475 0.40388,2.92809c0.13114,0.95076 -0.92548,1.91793 -1.70973,2.0261c-0.64368,0.08879 -1.90561,0.26284 -2.92809,0.40388c-0.86687,0.11957 -1.7103,-0.86235 -1.85782,-1.93185z" fill="#2f2f2f" stroke-width="0"/><path d="M240.70812,320.67616c-0.08014,-0.58102 -0.15995,-1.1596 -0.2154,-1.56164c-0.13523,-0.98038 0.6535,-2.87501 1.3799,-2.9752c0.58262,-0.08036 1.72308,-0.23767 2.73289,-0.37696c1.04617,-0.1443 2.0942,0.76119 2.19439,1.48759c0.05308,0.38483 0.24341,1.76475 0.40388,2.92809c0.13114,0.95076 -0.92547,1.91793 -1.70974,2.02611c-0.64368,0.08878 -1.9056,0.26284 -2.92809,0.40388c-0.86687,0.11957 -1.71031,-0.86235 -1.85783,-1.93185z" fill="#2f2f2f" stroke-width="0"/><path d="M231.13671,114.88087c-1.10727,-9.19929 -2.96576,-24.63984 -3.63317,-30.18474c-0.47074,-3.91092 2.93285,-9.17631 6.37143,-9.59019c5.2926,-0.63704 21.01957,-2.53001 30.69635,-3.69475c4.66928,-0.56202 8.38987,2.86699 8.79201,6.20799c0.62816,5.21881 2.51757,20.91622 3.69475,30.69635c0.57869,4.80785 -3.31404,8.70318 -6.94464,9.14017c-5.53649,0.6664 -21.8119,2.62538 -31.20797,3.75633c-4.11215,0.49496 -7.2577,-2.0851 -7.76877,-6.33115z" fill="#944f00" stroke-width="0"/><path d="M233.80768,112.52393c-0.96719,-8.03553 -2.59057,-21.52272 -3.17355,-26.36618c-0.41118,-3.41616 2.5618,-8.01545 5.56542,-8.37698c4.62303,-0.55645 18.36048,-2.20995 26.81308,-3.22734c4.07859,-0.49092 7.32851,2.50429 7.67978,5.42264c0.54869,4.55859 2.19909,18.27022 3.22734,26.81308c0.50548,4.19962 -2.89478,7.60218 -6.06611,7.9839c-4.8361,0.58209 -19.05258,2.29326 -27.25995,3.28113c-3.59197,0.43235 -6.33954,-1.82133 -6.78596,-5.53023z" fill="#d97400" stroke-width="0"/><path d="M238.87697,117.97661c0,0 -3.89667,-0.68851 -4.64561,-4.15881c-1.74859,-8.10233 -3.25618,-24.20741 -3.51296,-29.22942c-0.1867,-3.65099 4.98531,-6.86351 4.98531,-6.86351c0,0 2.51139,20.79051 4.95522,27.87589c1.84845,5.35913 7.93224,11.62865 7.93224,11.62865z" fill="#bc6400" stroke-width="0"/><path d="M236.38753,98.15929c-0.94132,-7.82062 4.63544,-14.92359 12.45607,-15.86492c5.0041,-0.60232 8.83217,1.1481 11.82246,4.76334c1.68306,2.03481 3.70345,4.87621 4.04246,7.69273c0.94132,7.82062 -4.63544,14.92359 -12.45607,15.86492c-7.82062,0.94132 -14.92359,-4.63544 -15.86492,-12.45607z" fill="#ffffff" stroke-width="0"/><path d="M241.69772,97.52014c-0.58833,-4.88789 2.89715,-9.32724 7.78505,-9.91557c4.88789,-0.58833 9.32724,2.89715 9.91557,7.78505c0.58833,4.88789 -2.89715,9.32724 -7.78505,9.91557c-4.88789,0.58833 -9.32724,-2.89715 -9.91557,-7.78505z" fill="#d97400" stroke-width="0"/><path d="M251.27169,94.43394l-0.81943,-6.80793l15.2726,0.90532l2.15818,3.90319z" fill="#d97400" stroke-width="0"/><path d="M254.63148,94.10942c0.48981,-1.38444 0.37515,-2.57684 1.29459,-5.1756c0.03919,-0.11078 0.14344,-0.12942 -0.02561,-0.5212c-0.15814,-0.36645 -0.96184,-0.43195 -0.94965,-0.5962c0.0671,-0.90375 1.47382,-2.90356 1.79421,-3.36898c0.19193,-0.27882 0.64255,-0.35356 0.89802,-0.39902c0.18978,-0.03377 0.32608,-0.37448 0.42486,-0.59576c0.8452,-1.89327 1.59642,-3.56839 1.85678,-4.30432c0.27531,-0.77815 0.89647,-0.78096 1.23287,-0.07622c0.69911,1.46464 3.30699,6.92819 4.44877,9.32021c0.33288,0.69739 0.0641,1.36141 -0.4385,1.60133c-1.26952,0.60598 -6.86902,3.27875 -9.52193,4.54505c-0.85445,0.40785 -1.2584,0.26041 -1.01439,-0.42926z" fill="#ffffff" stroke-width="0"/><path d="M462.86344,295.55656c-1.10727,-9.19929 -2.96577,-24.63984 -3.63318,-30.18474c-0.47073,-3.91091 2.93285,-9.17631 6.37143,-9.59019c5.2926,-0.63704 21.01957,-2.53001 30.69635,-3.69475c4.66928,-0.56202 8.38987,2.86699 8.79201,6.20799c0.62816,5.21882 2.51758,20.91622 3.69476,30.69635c0.5787,4.80785 -3.31404,8.70317 -6.94464,9.14017c-5.5365,0.6664 -21.8119,2.62538 -31.20797,3.75633c-4.11215,0.49496 -7.2577,-2.0851 -7.76878,-6.33116z" fill="#944f00" stroke-width="0"/><path d="M465.5344,293.19962c-0.9672,-8.03553 -2.59057,-21.52272 -3.17355,-26.36618c-0.41119,-3.41616 2.56179,-8.01545 5.56541,-8.37698c4.62304,-0.55645 18.36048,-2.20995 26.81308,-3.22735c4.0786,-0.49092 7.32851,2.5043 7.67978,5.42264c0.54869,4.5586 2.19909,18.27022 3.22734,26.81308c0.50549,4.19962 -2.89478,7.60218 -6.06611,7.9839c-4.8361,0.5821 -19.05258,2.29326 -27.25995,3.28113c-3.59197,0.43234 -6.33954,-1.82133 -6.78596,-5.53023z" fill="#d97400" stroke-width="0"/><path d="M470.60369,298.65229c0,0 -3.89666,-0.6885 -4.64561,-4.15881c-1.74859,-8.10233 -3.25619,-24.20741 -3.51297,-29.22942c-0.1867,-3.65098 4.98531,-6.86351 4.98531,-6.86351c0,0 2.51139,20.79051 4.95521,27.87589c1.84845,5.35913 7.93225,11.62865 7.93225,11.62865z" fill="#bc6400" stroke-width="0"/><path d="M468.11426,278.83498c-0.94133,-7.82062 4.63544,-14.92359 12.45607,-15.86491c5.0041,-0.60232 8.83217,1.14809 11.82246,4.76334c1.68306,2.03481 3.70345,4.87621 4.04245,7.69273c0.94133,7.82062 -4.63544,14.92359 -12.45607,15.86491c-7.82061,0.94133 -14.92359,-4.63544 -15.86491,-12.45607z" fill="#ffffff" stroke-width="0"/><path d="M473.42445,278.19581c-0.58833,-4.88789 2.89715,-9.32724 7.78505,-9.91557c4.88789,-0.58833 9.32724,2.89715 9.91557,7.78504c0.58833,4.88789 -2.89715,9.32724 -7.78504,9.91557c-4.88789,0.58833 -9.32724,-2.89715 -9.91557,-7.78504z" fill="#d97400" stroke-width="0"/><path d="M482.99842,275.10962l-0.81943,-6.80793l15.2726,0.90532l2.15818,3.90319z" fill="#d97400" stroke-width="0"/><path d="M486.3582,274.78509c0.48981,-1.38444 0.37515,-2.57684 1.29458,-5.1756c0.0392,-0.11078 0.14345,-0.12942 -0.02561,-0.5212c-0.15814,-0.36645 -0.96183,-0.43195 -0.94965,-0.59619c0.0671,-0.90376 1.47382,-2.90356 1.7942,-3.36898c0.19193,-0.27882 0.64255,-0.35357 0.89802,-0.39902c0.18977,-0.03377 0.32609,-0.37449 0.42486,-0.59577c0.8452,-1.89327 1.59641,-3.56838 1.85679,-4.30432c0.27531,-0.77815 0.89648,-0.78095 1.23286,-0.07621c0.69911,1.46464 3.307,6.92819 4.44877,9.32021c0.33289,0.69739 0.0641,1.36141 -0.43849,1.60132c-1.26952,0.60598 -6.86902,3.27874 -9.52193,4.54505c-0.85445,0.40785 -1.25841,0.26041 -1.0144,-0.42926z" fill="#ffffff" stroke-width="0"/><path d="M81.61796,137.60294c-0.92663,-8.91405 -2.48193,-23.87582 -3.04046,-29.2488c-0.39394,-3.78965 2.98023,-8.82848 6.3122,-9.17485c5.12849,-0.53312 20.36781,-2.11727 29.74454,-3.09199c4.5245,-0.47033 8.06896,2.90421 8.40548,6.1416c0.52568,5.05699 2.10686,20.26767 3.09199,29.74455c0.48428,4.65877 -3.34145,8.36494 -6.85949,8.73064c-5.36482,0.55768 -21.13558,2.19708 -30.2403,3.14353c-3.98465,0.41421 -6.98629,-2.13029 -7.41398,-6.24467z" fill="#008793" stroke-width="0"/><path d="M84.238,135.3654c-0.8094,-7.78637 -2.16795,-20.85537 -2.65582,-25.54865c-0.34411,-3.31024 2.60319,-7.71163 5.51368,-8.01418c4.47969,-0.46567 17.79118,-1.84942 25.98169,-2.70084c3.95213,-0.41083 7.04819,2.53681 7.34216,5.36466c0.45918,4.41724 1.84033,17.70371 2.70083,25.98168c0.42302,4.0694 -2.91874,7.30674 -5.99174,7.62618c-4.68615,0.48713 -18.46181,1.91913 -26.4147,2.74585c-3.48059,0.36182 -6.10246,-1.86079 -6.47605,-5.4547z" fill="#00c6d9" stroke-width="0"/><path d="M89.05507,140.71819c0,0 -3.75769,-0.72696 -4.4276,-4.09484c-1.56406,-7.86323 -2.76958,-23.46218 -2.93918,-28.32302c-0.12332,-3.53383 4.92892,-6.55959 4.92892,-6.55959c0,0 2.10284,20.146 4.35521,27.03661c1.70364,5.21182 7.48903,11.37049 7.48903,11.37049z" fill="#00a5b4" stroke-width="0"/><path d="M117.67973,118.12849c0.78776,7.57814 -4.71693,14.36002 -12.29505,15.14777c-7.57814,0.78776 -14.36003,-4.71693 -15.14778,-12.29505c-0.2837,-2.72919 1.01315,-5.84209 2.16465,-8.12193c2.04587,-4.0506 5.28148,-6.52179 10.13041,-7.02585c7.57814,-0.78776 14.36002,4.71694 15.14778,12.29505z" data-paper-data="{&quot;index&quot;:null}" fill="#ffffff" stroke-width="0"/><path d="M104.8498,128.13074c-4.73633,0.49235 -8.97502,-2.94807 -9.46737,-7.68441c-0.49235,-4.73632 2.94808,-8.97502 7.68442,-9.46737c4.73633,-0.49235 8.97501,2.94807 9.46736,7.68442c0.49235,4.73632 -2.94807,8.97502 -7.68441,9.46737z" data-paper-data="{&quot;index&quot;:null}" fill="#00c6d9" stroke-width="0"/><path d="M89.63773,121.47649l-0.00504,-6.51044l12.52433,-3.75913l0.68575,6.59683z" data-paper-data="{&quot;index&quot;:null}" fill="#00c6d9" stroke-width="0"/><path d="M99.60428,118.21755c0.37791,0.59822 0.02849,0.82384 -0.86481,0.62222c-2.77355,-0.62598 -8.62768,-1.94721 -9.95494,-2.24677c-0.52545,-0.11859 -0.92124,-0.68732 -0.75669,-1.41643c0.56442,-2.5008 1.85359,-8.21279 2.19918,-9.74403c0.16629,-0.73679 0.75277,-0.86722 1.17918,-0.19226c0.40326,0.63834 1.47071,2.05737 2.67355,3.66202c0.14057,0.18755 0.34214,0.47971 0.52837,0.4709c0.2507,-0.01185 0.69174,-0.03792 0.9325,0.18395c0.4019,0.37034 2.15721,1.95517 2.41413,2.79321c0.04667,0.15231 -0.69734,0.38628 -0.76798,0.76581c-0.07551,0.40573 0.02682,0.40098 0.08753,0.49708c1.42401,2.25417 1.57135,3.40342 2.32997,4.60428z" data-paper-data="{&quot;index&quot;:null}" fill="#ffffff" stroke-width="0"/><text transform="translate(250.96253,42.14118) scale(1.0531,1.0531)" font-size="40" xml:space="preserve" fill="#ffffff" fill-rule="nonzero" stroke="none" stroke-width="1" stroke-linecap="butt" stroke-linejoin="miter" stroke-miterlimit="10" stroke-dasharray="" stroke-dashoffset="0" font-family="&quot; Pro W3&quot;, &quot;Hiragino Kaku Gothic Pro&quot;, Osaka, &quot;&quot;, Meiryo, &quot; &quot;, &quot;MS PGothic&quot;" font-weight="normal" text-anchor="start" style="mix-blend-mode: normal"><tspan x="0" dy="0">Cell Machine</tspan></text><text transform="translate(300.08265,72.57624) scale(0.60211,0.60211)" font-size="40" xml:space="preserve" fill="#ffffff" fill-rule="nonzero" stroke="none" stroke-width="1" stroke-linecap="butt" stroke-linejoin="miter" stroke-miterlimit="10" stroke-dasharray="" stroke-dashoffset="0" font-family="&quot; Pro W3&quot;, &quot;Hiragino Kaku Gothic Pro&quot;, Osaka, &quot;&quot;, Meiryo, &quot; &quot;, &quot;MS PGothic&quot;" font-weight="normal" text-anchor="start" style="mix-blend-mode: normal"><tspan x="0" dy="0">Mystic Expanded</tspan></text></g></g></svg>