<svg version="1.1" xmlns="http://www.w3.org/2000/svg" xmlns:xlink="http://www.w3.org/1999/xlink" width="59.0642" height="59.06415" viewBox="0,0,59.0642,59.06415"><g transform="translate(-210.46791,-150.46792)"><g data-paper-data="{&quot;isPaintingLayer&quot;:true}" fill-rule="nonzero" stroke-linecap="butt" stroke-linejoin="miter" stroke-miterlimit="10" stroke-dasharray="" stroke-dashoffset="0" style="mix-blend-mode: normal"><path d="M210.46795,200.34434c0,-11.80048 0,-31.60703 0,-38.71985c0,-5.01677 5.10502,-11.15657 9.51589,-11.15657c6.78916,0 26.96311,0 39.37611,0c5.98957,0 10.17216,4.90203 10.17216,9.18775c0,6.6945 0,26.83056 0,39.37611c0,6.16734 -5.51499,10.50029 -10.17216,10.50029c-7.10202,0 -27.9795,0 -40.03241,0c-5.27492,0 -8.85963,-3.74108 -8.85963,-9.18775z" fill="#79009b" stroke="none" stroke-width="0"/><path d="M214.20391,197.77068c0,-10.30767 0,-27.60855 0,-33.82157c0,-4.38212 4.45918,-9.74519 8.31209,-9.74519c5.93026,0 23.55214,0 34.39481,0c5.23185,0 8.88532,4.28188 8.88532,8.02546c0,5.8476 0,23.43635 0,34.39481c0,5.38709 -4.81731,9.17195 -8.88532,9.17195c-6.20359,0 -24.43993,0 -34.96804,0c-4.60761,0 -7.73883,-3.26781 -7.73883,-8.02546z" fill="#ab00d9" stroke="none" stroke-width="0"/><path d="M217.3822,204.90306c0,0 -2.42062,-0.92992 -2.83947,-5.43188c-0.97788,-10.51108 -0.43299,-31.10449 0.00661,-37.49362c0.31961,-4.64485 6.34858,-8.16971 6.34858,-8.16971v0c0,0 1.01097,26.92058 3.02272,36.2516c1.52161,7.05765 7.99323,14.8436 7.99323,14.8436z" fill="#9500be" stroke="none" stroke-width="0"/><path d="M234.52945,167.65792v-4.26969h8.5394v4.26969z" fill="#ffffff" stroke="#ffffff" stroke-width="1"/><path d="M219.0518,171.3939v-4.26969h41.8964v4.26969z" fill="#ffffff" stroke="#ffffff" stroke-width="1"/><path d="M223.8552,194.07667v-23.21648h4.26969v23.21648z" fill="#ffffff" stroke="#ffffff" stroke-width="1"/><path d="M236.93116,194.61038v-23.75019h4.53656v23.75019z" fill="#ffffff" stroke="#ffffff" stroke-width="1"/><path d="M249.74024,194.07667v-23.48334h3.73598v23.48334z" fill="#ffffff" stroke="#ffffff" stroke-width="1"/><path d="M223.8552,196.61181v-2.93542h29.62102v2.93542z" fill="#ffffff" stroke="#ffffff" stroke-width="1"/></g></g></svg>