<svg version="1.1" xmlns="http://www.w3.org/2000/svg" xmlns:xlink="http://www.w3.org/1999/xlink" width="34.85724" height="34.85722" viewBox="0,0,34.85724,34.85722"><g transform="translate(-222.57138,-162.57139)"><g data-paper-data="{&quot;isPaintingLayer&quot;:true}" fill-rule="nonzero" stroke="none" stroke-width="0" stroke-linecap="butt" stroke-linejoin="miter" stroke-miterlimit="10" stroke-dasharray="" stroke-dashoffset="0" style="mix-blend-mode: normal"><path d="M222.57139,192.00639c0,-6.96417 0,-18.65317 0,-22.85085c0,-2.96069 3.01276,-6.58414 5.61588,-6.58414c4.00667,0 15.91251,0 23.23815,0c3.5348,0 6.0032,2.89298 6.0032,5.42222c0,3.95081 0,15.83427 0,23.23815c0,3.6397 -3.25471,6.19684 -6.0032,6.19684c-4.19131,0 -16.51233,0 -23.62546,0c-3.11304,0 -5.22858,-2.20783 -5.22858,-5.42222z" fill="#008793"/><path d="M224.77621,190.48749c0,-6.08316 0,-16.29341 0,-19.96007c0,-2.58615 2.63161,-5.75121 4.90545,-5.75121c3.49979,0 13.89949,0 20.29839,0c3.08763,0 5.24377,2.527 5.24377,4.73628c0,3.451 0,13.83116 0,20.29839c0,3.17925 -2.84297,5.41291 -5.24377,5.41291c-3.66109,0 -14.42343,0 -20.63669,0c-2.71924,0 -4.56712,-1.92852 -4.56712,-4.73628z" fill="#00c6d9"/><path d="M228.06928,195.01172c0,0 -2.84594,-0.86378 -3.09312,-3.52066c-0.5771,-6.2032 -0.25556,-18.35657 0.0039,-22.12717c0.18861,-2.74122 4.33662,-4.67393 4.33662,-4.67393c0,0 0.00667,15.73991 1.19392,21.24667c0.89801,4.16512 4.87475,9.39002 4.87475,9.39002z" fill="#00a5b4"/><path d="M252.00841,179.85185c0,5.92048 -4.7995,10.71996 -10.71996,10.71996c-5.92048,0 -10.71996,-4.7995 -10.71996,-10.71996c0,-2.1322 1.25245,-4.43398 2.32562,-6.10357c1.90671,-2.96636 4.60608,-4.61639 8.39434,-4.61639c5.92048,0 10.71996,4.7995 10.71996,10.71996z" data-paper-data="{&quot;index&quot;:null}" fill="#ffffff"/><path d="M241.28845,186.55183c-3.70029,0 -6.69998,-2.99968 -6.69998,-6.69998c0,-3.70029 2.99968,-6.69998 6.69998,-6.69998c3.70029,0 6.69998,2.99968 6.69998,6.69998c0,3.70029 -2.99968,6.69998 -6.69998,6.69998z" data-paper-data="{&quot;index&quot;:null}" fill="#00c6d9"/><path d="M230.06559,180.18651l0.51919,-5.03236l9.98215,-1.89919v5.15383z" data-paper-data="{&quot;index&quot;:null}" fill="#00c6d9"/><path d="M238.03063,178.46842c0.24403,0.49273 -0.04417,0.63904 -0.71841,0.41144c-2.0934,-0.70666 -6.51193,-2.1982 -7.51371,-2.53637c-0.3966,-0.13388 -0.65681,-0.60525 -0.47105,-1.15556c0.63717,-1.88753 2.0925,-6.19879 2.48264,-7.35453c0.18772,-0.55611 0.6515,-0.6098 0.92684,-0.05386c0.26039,0.52578 0.97142,1.70832 1.77218,3.0452c0.09358,0.15625 0.2259,0.39826 0.37055,0.40641c0.19472,0.01098 0.5377,0.02627 0.70596,0.2171c0.28088,0.31853 1.51023,1.68448 1.64147,2.35285c0.02384,0.12147 -0.57001,0.24253 -0.6551,0.53019c-0.09096,0.30753 -0.01149,0.31208 0.02771,0.39123c0.91952,1.85667 0.94106,2.75677 1.43092,3.74587z" data-paper-data="{&quot;index&quot;:null}" fill="#ffffff"/></g></g></svg>