<svg version="1.1" xmlns="http://www.w3.org/2000/svg" xmlns:xlink="http://www.w3.org/1999/xlink" width="35.66146" height="35.66143" viewBox="0,0,35.66146,35.66143"><g transform="translate(-222.16927,-162.16928)"><g data-paper-data="{&quot;isPaintingLayer&quot;:true}" fill-rule="nonzero" stroke-linecap="butt" stroke-linejoin="miter" stroke-miterlimit="10" stroke-dasharray="" stroke-dashoffset="0" style="mix-blend-mode: normal"><path d="M222.1693,192.28339c0,-7.12483 0,-19.08352 0,-23.37806c0,-3.029 3.08228,-6.73605 5.74545,-6.73605c4.09912,0 16.27964,0 23.77429,0c3.61635,0 6.14169,2.95972 6.14169,5.54733c0,4.04197 0,16.19961 0,23.77429c0,3.72368 -3.32981,6.33981 -6.14169,6.33981c-4.28802,0 -16.89331,0 -24.17055,0c-3.18486,0 -5.34922,-2.25877 -5.34922,-5.54733z" fill="#79009b" stroke="none" stroke-width="0"/><path d="M224.42498,190.72948c0,-6.22351 0,-16.66934 0,-20.4206c0,-2.64581 2.69234,-5.8839 5.01863,-5.8839c3.58054,0 14.22018,0 20.76671,0c3.15886,0 5.36473,2.58529 5.36473,4.84557c0,3.53063 0,14.15027 0,20.76671c0,3.25259 -2.90857,5.53779 -5.36473,5.53779c-3.74557,0 -14.75621,0 -21.11281,0c-2.78196,0 -4.67251,-1.97302 -4.67251,-4.84557z" fill="#ab00d9" stroke="none" stroke-width="0"/><path d="M226.34395,195.03583c0,0 -1.46151,-0.56146 -1.7144,-3.27963c-0.59042,-6.34632 -0.26143,-18.7801 0.00399,-22.63769c0.19297,-2.80444 3.83311,-4.93266 3.83311,-4.93266v0c0,0 0.6104,16.25396 1.82504,21.88779c0.91871,4.26123 4.82611,8.96219 4.82611,8.96219z" fill="#9500be" stroke="none" stroke-width="0"/><path d="M236.69702,172.54816v-2.57793h5.15587v2.57793z" fill="#ffffff" stroke="#ffffff" stroke-width="1"/><path d="M227.35201,174.80385v-2.57793h25.29598v2.57793z" fill="#ffffff" stroke="#ffffff" stroke-width="1"/><path d="M230.25218,188.49913v-14.01752h2.57793v14.01752z" fill="#ffffff" stroke="#ffffff" stroke-width="1"/><path d="M238.14711,188.82137v-14.33976h2.73906v14.33976z" fill="#ffffff" stroke="#ffffff" stroke-width="1"/><path d="M245.88091,188.49913v-14.17864h2.25569v14.17864z" fill="#ffffff" stroke="#ffffff" stroke-width="1"/><path d="M230.25218,190.02978v-1.77233h17.88442v1.77233z" fill="#ffffff" stroke="#ffffff" stroke-width="1"/></g></g></svg>